<svg width="24" height="24" viewBox="0 0 24 24" fill="none" xmlns="http://www.w3.org/2000/svg">
<path fill-rule="evenodd" clip-rule="evenodd" d="M3.12586 11.9615H20.9893C20.8726 9.75435 19.9834 7.37914 18.1932 5.71457L13.3265 9.17666L12.7468 8.36181L17.3884 5.05985C16.9301 4.73498 16.4244 4.45075 15.8692 4.21706L7.74149 10.041L7.15903 9.22819L14.7026 3.82277C13.9091 3.61531 13.0292 3.5 12.0576 3.5C8.8772 3.5 6.65769 4.73483 5.22484 6.45033C3.8977 8.03928 3.22626 10.0651 3.12586 11.9615ZM4.45734 5.80928C6.08434 3.86133 8.58735 2.5 12.0576 2.5C13.5342 2.5 14.8397 2.74634 15.9802 3.18398C16.9623 3.56088 17.8169 4.07775 18.5491 4.69453C20.9448 6.71271 22.0026 9.77277 22.0026 12.4615V12.9615H21.5026H2.61257H2.11257V12.4615C2.11257 10.2268 2.84206 7.7432 4.45734 5.80928ZM4.07602 15.0821C4.7501 14.7078 5.72666 14.3846 7.10471 14.3846C8.0022 14.3846 8.83742 14.54 9.56073 14.8175H14.4393C15.1626 14.54 15.9978 14.3846 16.8953 14.3846C18.2733 14.3846 19.2499 14.7078 19.924 15.0821C20.519 15.4124 20.865 15.7784 21.0059 15.9274C21.024 15.9466 21.0388 15.9622 21.0502 15.9737C21.2785 16.2024 21.6672 16.5192 22.0785 16.5192C22.4606 16.5192 22.8469 16.6053 23.1307 16.8895C23.4143 17.1736 23.5 17.5601 23.5 17.9423C23.5 18.3245 23.4143 18.711 23.1307 18.9951C22.8469 19.2793 22.4606 19.3654 22.0785 19.3654C21.6672 19.3654 21.2785 19.6822 21.0502 19.9109C21.0388 19.9224 21.024 19.938 21.0059 19.9572C20.865 20.1062 20.519 20.4722 19.924 20.8025C19.2499 21.1768 18.2733 21.5 16.8953 21.5C15.515 21.5 14.2756 21.1319 13.3667 20.5115C12.7292 20.0764 12.2366 19.5015 12 18.8347C11.7634 19.5015 11.2708 20.0764 10.6333 20.5115C9.72443 21.1319 8.48503 21.5 7.10471 21.5C5.72666 21.5 4.7501 21.1768 4.07602 20.8025C3.48102 20.4722 3.13498 20.1062 2.99413 19.9572C2.97598 19.938 2.96123 19.9224 2.9498 19.9109C2.7215 19.6822 2.33277 19.3654 1.92147 19.3654C1.53942 19.3654 1.15309 19.2793 0.869305 18.9951C0.585711 18.711 0.5 18.3245 0.5 17.9423C0.5 17.5601 0.585711 17.1736 0.869305 16.8895C1.15309 16.6053 1.53942 16.5192 1.92147 16.5192C2.33277 16.5192 2.7215 16.2024 2.9498 15.9737C2.96123 15.9622 2.97598 15.9466 2.99413 15.9274C3.13498 15.7784 3.48102 15.4124 4.07602 15.0821ZM12 17.0471C12.1628 16.5885 12.447 16.1742 12.8185 15.8175H11.1815C11.553 16.1742 11.8372 16.5885 12 17.0471ZM3.71681 16.6188C3.69464 16.642 3.675 16.6627 3.65753 16.6802C3.42509 16.913 2.77718 17.5192 1.92147 17.5192C1.67 17.5192 1.59561 17.5774 1.57703 17.596C1.55827 17.6148 1.5 17.6899 1.5 17.9423C1.5 18.1947 1.55827 18.2698 1.57703 18.2886C1.59561 18.3072 1.67 18.3654 1.92147 18.3654C2.77717 18.3654 3.42509 18.9716 3.65753 19.2044C3.675 19.222 3.69464 19.2426 3.71681 19.2658C3.85986 19.416 4.10829 19.6767 4.56141 19.9282C5.08237 20.2175 5.89114 20.5 7.10471 20.5C8.31602 20.5 9.35149 20.1757 10.0695 19.6856C10.7892 19.1944 11.1545 18.568 11.1545 17.9423C11.1545 17.1187 10.5075 16.2767 9.27894 15.7812C8.6623 15.5325 7.92214 15.3846 7.10471 15.3846C5.89114 15.3846 5.08237 15.6672 4.56141 15.9564C4.10829 16.2079 3.85987 16.4687 3.71681 16.6188ZM16.8953 15.3846C16.0779 15.3846 15.3377 15.5325 14.7211 15.7812C13.4925 16.2767 12.8455 17.1187 12.8455 17.9423C12.8455 18.568 13.2108 19.1944 13.9305 19.6856C14.6485 20.1757 15.684 20.5 16.8953 20.5C18.1089 20.5 18.9176 20.2175 19.4386 19.9282C19.8917 19.6767 20.1401 19.416 20.2832 19.2658C20.3054 19.2426 20.325 19.222 20.3425 19.2044C20.5749 18.9716 21.2228 18.3654 22.0785 18.3654C22.33 18.3654 22.4044 18.3072 22.423 18.2886C22.4417 18.2698 22.5 18.1947 22.5 17.9423C22.5 17.6899 22.4417 17.6148 22.423 17.596C22.4044 17.5774 22.33 17.5192 22.0785 17.5192C21.2228 17.5192 20.5749 16.913 20.3425 16.6802C20.325 16.6627 20.3054 16.642 20.2832 16.6188C20.1401 16.4687 19.8917 16.2079 19.4386 15.9564C18.9176 15.6672 18.1089 15.3846 16.8953 15.3846ZM5.28406 17.2064C4.83102 17.4154 4.66754 17.6666 4.66754 17.9423C4.66754 18.218 4.83102 18.4692 5.28406 18.6782C5.74144 18.8892 6.39606 19 7.10471 19C7.81336 19 8.46799 18.8892 8.92537 18.6782C9.37841 18.4692 9.54189 18.218 9.54189 17.9423C9.54189 17.6666 9.37841 17.4154 8.92537 17.2064C8.46799 16.9954 7.81336 16.8846 7.10471 16.8846C6.39606 16.8846 5.74144 16.9954 5.28406 17.2064ZM4.86516 16.2984C5.50202 16.0046 6.31598 15.8846 7.10471 15.8846C7.89344 15.8846 8.70741 16.0046 9.34427 16.2984C9.98547 16.5942 10.5419 17.1218 10.5419 17.9423C10.5419 18.7628 9.98547 19.2904 9.34427 19.5862C8.70741 19.88 7.89344 20 7.10471 20C6.31598 20 5.50202 19.88 4.86516 19.5862C4.22396 19.2904 3.66754 18.7628 3.66754 17.9423C3.66754 17.1218 4.22396 16.5942 4.86516 16.2984ZM15.0746 17.2064C14.6216 17.4154 14.4581 17.6666 14.4581 17.9423C14.4581 18.218 14.6216 18.4692 15.0746 18.6782C15.532 18.8892 16.1866 19 16.8953 19C17.6039 19 18.2586 18.8892 18.7159 18.6782C19.169 18.4692 19.3325 18.218 19.3325 17.9423C19.3325 17.6666 19.169 17.4154 18.7159 17.2064C18.2586 16.9954 17.6039 16.8846 16.8953 16.8846C16.1866 16.8846 15.532 16.9954 15.0746 17.2064ZM14.6557 16.2984C15.2926 16.0046 16.1066 15.8846 16.8953 15.8846C17.684 15.8846 18.498 16.0046 19.1348 16.2984C19.776 16.5942 20.3325 17.1218 20.3325 17.9423C20.3325 18.7628 19.776 19.2904 19.1348 19.5862C18.498 19.88 17.684 20 16.8953 20C16.1066 20 15.2926 19.88 14.6557 19.5862C14.0145 19.2904 13.4581 18.7628 13.4581 17.9423C13.4581 17.1218 14.0145 16.5942 14.6557 16.2984Z" fill="#221A22"/>
</svg>
