<svg width="24" height="24" viewBox="0 0 24 24" fill="none" xmlns="http://www.w3.org/2000/svg">
<path fill-rule="evenodd" clip-rule="evenodd" d="M21.9241 5.0176C22.1552 4.75543 22.3326 4.61936 22.4807 4.55404C22.6118 4.49618 22.7495 4.48033 22.9423 4.52819L23.1832 3.55764C22.7994 3.46237 22.4325 3.4823 22.077 3.63914C21.8466 3.7408 21.6382 3.89256 21.4423 4.07698C19.8909 3.36902 18.5378 3.54333 17.5367 4.10846C17.01 4.40582 16.5905 4.80595 16.2952 5.22359C16.0056 5.63322 15.8137 6.09155 15.7878 6.51497C14.4109 6.57632 13.5153 6.82586 12.7992 7.2616C12.3887 7.51136 12.0575 7.81019 11.7421 8.12927C11.602 8.27092 11.4614 8.4205 11.3191 8.57183L11.3191 8.57186L11.2682 8.62597C11.1068 8.79742 10.9402 8.97347 10.7572 9.15647C9.47088 10.4428 7.6646 10.8389 5.96623 10.9538C5.28249 11.0001 4.63328 11 4.05444 11H4.0544L4 11C3.31412 11 2.77056 11.3481 2.36351 11.802C1.96105 12.2507 1.6606 12.8343 1.43838 13.4055C0.996901 14.5403 0.808712 15.7755 0.808712 16.1946C0.808712 16.47 0.848688 16.8066 1.054 17.0792C1.28269 17.383 1.62964 17.5 2.00334 17.5H2.00589H2.00848H2.01111H2.01377H2.01647H2.01921H2.02198H2.02479H2.02763H2.03051H2.03343H2.03639H2.03938H2.0424H2.04546H2.04856H2.05169H2.05486H2.05806H2.0613H2.06457H2.06788H2.07122H2.07459H2.078H2.08145H2.08493H2.08844H2.09199H2.09557H2.09919H2.10283H2.10652H2.11023H2.11398H2.11776H2.12157H2.12542H2.1293H2.13321H2.13716H2.14114H2.14515H2.14919H2.15326H2.15737H2.1615H2.16567H2.16987H2.1741H2.17837H2.18266H2.18699H2.19134H2.19573H2.20015H2.20459H2.20907H2.21358H2.21812H2.22269H2.22729H2.23192H2.23657H2.24126H2.24598H2.25073H2.2555H2.26031H2.26514H2.27H2.27489H2.27982H2.28476H2.28974H2.29474H2.29978H2.30484H2.30993H2.31504H2.32019H2.32536H2.33056H2.33579H2.34104H2.34632H2.35163H2.35696H2.36232H2.36771H2.37312H2.37856H2.38403H2.38952H2.39504H2.40059H2.40615H2.41175H2.41737H2.42302H2.42869H2.43438H2.44011H2.44585H2.45162H2.45742H2.46324H2.46908H2.47495H2.48084H2.48676H2.4927H2.49866H2.50465H2.51066H2.51669H2.52275H2.52883H2.53494H2.54106H2.54721H2.55338H2.55958H2.5658H2.57203H2.5783H2.58458H2.59089H2.59721H2.60356H2.60993H2.61632H2.62274H2.62917H2.63563H2.6421H2.6486H2.65512H2.66165H2.66821H2.67479H2.68139H2.68801H2.69465H2.70131H2.70799H2.71469H2.72141H2.72814H2.7349H2.74167H2.74847H2.75528H2.76211H2.76896H2.77584H2.78272H2.78963H2.79655H2.8035H2.81046H2.81743H2.82443H2.83144H2.83847H2.84552H2.85258H2.85967H2.86677H2.87388H2.88101H2.88816H2.89533H2.90251H2.90971H2.91692H2.92415H2.9314H2.93866H2.94594H2.95323H2.96054H2.96786H2.9752H2.98255H2.98992H2.9973H3.0047H3.01211H3.01954H3.02698H3.03444H3.0419H3.04939H3.05688H3.06439H3.07192H3.07945H3.08701H3.09457H3.10214H3.10973H3.11734H3.12495H3.13258H3.14022H3.14787H3.15554H3.16321H3.1709H3.1786H3.18631H3.19404H3.20177H3.20952H3.21728H3.22504H3.23282H3.24062H3.24842H3.25623H3.26405H3.27188H3.27973H3.28758H3.29544H3.30332H3.3112H3.31909H3.32699H3.33491H3.34283H3.35076H3.35869H3.36664H3.3746H3.38256H3.39054H3.39852H3.40651H3.41451H3.42252H3.43053H3.43855H3.44658H3.45462H3.46267H3.47072H3.47878H3.48685H3.49492H3.503H3.51109H3.51918H3.52728H3.53539H3.5435H3.55162H3.55975H3.56788H3.57602H3.58416H3.59231H3.60046H3.60862H3.61678H3.62495H3.63313H3.6413H3.64949H3.65767H3.66587H3.67406H3.68226H3.69047H3.69868H3.70689H3.71511H3.72333H3.73155H3.73977H3.748H3.75624H3.76447H3.77271H3.78095H3.7892H3.79744H3.80569H3.81394H3.8222H3.83045H3.83871H3.84697H3.85523H3.86349H3.87175H3.88002H3.88828H3.89655H3.90482H3.91309H3.92135H3.92962H3.93789H3.94617H3.95444H3.96271H3.97098H3.97925H3.98752H3.99578H4.00406H4.01232H4.02059H4.02886H4.03712H4.04539H4.05365H4.06191H4.07017H4.07843H4.08669H4.09494H4.10319H4.11144H4.11969H4.12794H4.13618H4.14442H4.15266H4.16089H4.16913H4.17736H4.18558H4.1938H4.20202H4.21024H4.21845H4.22666H4.23486H4.24306H4.25126H4.25945H4.26764H4.27582H4.28399H4.29217H4.30034H4.3085H4.31666H4.32481H4.33296H4.3411H4.34923H4.35736H4.36549H4.3736H4.38172H4.38982H4.39792H4.40601H4.4141H4.42218H4.43025H4.43832H4.44637H4.45443H4.46247H4.47051H4.47853H4.48656H4.49457H4.50257H4.51057H4.51856H4.52654H4.53451H4.54248H4.55043H4.55838H4.56631H4.57424H4.58216H4.59007H4.59797H4.60586H4.61374H4.62161H4.62947H4.63732H4.64516H4.653H4.66082H4.66862H4.67642H4.68421H4.69199H4.69976H4.70751H4.71526H4.72299H4.73071H4.73842H4.74612H4.7538H4.76148H4.76914H4.77679H4.78443H4.79205H4.79966H4.80726H4.81485H4.82242H4.82998H4.83753H4.84507H4.85259H4.86009H4.86759H4.87507H4.88253H4.88998H4.89742H4.90485H4.91225H4.91965H4.92703H4.93439H4.94174H4.94908H4.9564H4.96371H4.97099H4.97827H4.98553H4.99277H5H5.00721H5.0144H5.02158H5.02874H5.03589H5.04146C5.2795 18.9188 6.51348 20 7.99998 20C9.48648 20 10.7205 18.9188 10.9585 17.5H14.0221C14.0059 17.5344 13.9907 17.5688 13.9765 17.603C13.8593 17.8865 13.7945 18.1968 13.8051 18.4922C13.8156 18.7823 13.9023 19.1094 14.1464 19.3535C14.4694 19.6765 15.0117 19.9803 15.5986 20.0581C16.2147 20.1398 16.9117 19.9704 17.4041 19.2944L16.5959 18.7056C16.3599 19.0295 16.0568 19.1101 15.73 19.0668C15.3741 19.0196 15.0306 18.8235 14.8536 18.6464C14.8477 18.6406 14.8094 18.5927 14.8045 18.4562C14.7998 18.3253 14.8293 18.1576 14.9006 17.9852C15.0503 17.6234 15.3136 17.3867 15.5806 17.3478L16.5235 17.2104L15.8747 16.5126C15.6297 16.2492 15.5249 15.9133 15.5048 15.5698C15.4846 15.2217 15.5547 14.9042 15.6168 14.7369L15.7783 14.3017L15.3563 14.1084C15.2513 14.0603 15.0603 13.9436 14.8882 13.7704C14.718 13.599 14.5969 13.4038 14.5608 13.1972C14.4665 12.5343 14.5705 12.0655 14.8117 11.716C15.0591 11.3575 15.5027 11.049 16.2358 10.8174C16.5623 10.7143 16.8107 10.7119 17.003 10.7541C17.1957 10.7964 17.3642 10.8904 17.5199 11.0282C17.8501 11.3203 18.0812 11.7655 18.3058 12.2115L18.482 12.5615L18.864 12.474C19.7895 12.262 19.9625 12.4447 19.9962 12.4885C20.0338 12.5374 20.0764 12.6348 20.1011 12.8335C20.1258 13.0313 20.1266 13.2662 20.1266 13.561H21.1266L21.1266 13.5429C21.1266 13.2703 21.1266 12.9756 21.0935 12.7097C21.0597 12.4387 20.9851 12.1336 20.7884 11.8783C20.4141 11.3923 19.7957 11.3011 19.0256 11.4238C18.8272 11.051 18.5586 10.612 18.1826 10.2793C18.1248 10.2281 18.0639 10.1789 18 10.1325V8.83899L18.2381 8.39931C17.4224 7.95758 16.7342 7.44953 16.7859 6.57726C16.7968 6.39325 16.893 6.11035 17.1118 5.80087C17.3256 5.49839 17.636 5.20077 18.0283 4.97928C18.7927 4.54776 19.909 4.38225 21.3145 5.1286L21.6631 5.31372L21.9241 5.0176ZM17 8.80934V9.74161C16.6707 9.7051 16.3157 9.74346 15.9346 9.86385C15.1765 10.1033 14.56 10.4515 14.1379 10.9527H9.98467C10.511 10.6723 11.0117 10.3161 11.4643 9.86358C11.6588 9.66906 11.8343 9.48355 11.9964 9.31127L12.0472 9.25732L12.0473 9.25724C12.1909 9.10447 12.3226 8.96444 12.4532 8.83229C12.743 8.53918 13.0084 8.30487 13.319 8.11588C13.857 7.78853 14.5935 7.55918 15.9333 7.5099C16.15 8.07824 16.5714 8.49721 17 8.80934ZM13.6222 11.9527C13.5111 12.3791 13.5 12.8464 13.5719 13.346L13.5717 13.346L13.5737 13.3576C13.654 13.8361 13.9168 14.2115 14.1788 14.4752C14.305 14.6022 14.4381 14.7107 14.5654 14.7996C14.5171 15.0415 14.489 15.327 14.5065 15.6279C14.5226 15.9044 14.5782 16.2052 14.6995 16.5H10.9585C10.7205 15.0811 9.48648 14 7.99998 14C6.51348 14 5.2795 15.0811 5.04146 16.5H5.03589H5.02874H5.02158H5.0144H5.00721H5H4.99277H4.98553H4.97827H4.97099H4.96371H4.9564H4.94908H4.94174H4.93439H4.92703H4.91965H4.91225H4.90485H4.89742H4.88998H4.88253H4.87507H4.86759H4.86009H4.85259H4.84507H4.83753H4.82998H4.82242H4.81485H4.80726H4.79966H4.79205H4.78443H4.77679H4.76914H4.76148H4.7538H4.74612H4.73842H4.73071H4.72299H4.71526H4.70751H4.69976H4.69199H4.68421H4.67642H4.66862H4.66082H4.653H4.64516H4.63732H4.62947H4.62161H4.61374H4.60586H4.59797H4.59007H4.58216H4.57424H4.56631H4.55838H4.55043H4.54248H4.53451H4.52654H4.51856H4.51057H4.50257H4.49457H4.48656H4.47853H4.47051H4.46247H4.45443H4.44637H4.43832H4.43025H4.42218H4.4141H4.40601H4.39792H4.38982H4.38172H4.3736H4.36549H4.35736H4.34923H4.3411H4.33296H4.32481H4.31666H4.3085H4.30034H4.29217H4.28399H4.27582H4.26764H4.25945H4.25126H4.24306H4.23486H4.22666H4.21845H4.21024H4.20202H4.1938H4.18558H4.17736H4.16913H4.16089H4.15266H4.14442H4.13618H4.12794H4.11969H4.11144H4.10319H4.09494H4.08669H4.07843H4.07017H4.06191H4.05365H4.04539H4.03712H4.02886H4.02059H4.01232H4.00406H3.99578H3.98752H3.97925H3.97098H3.96271H3.95444H3.94617H3.93789H3.92962H3.92135H3.91309H3.90482H3.89655H3.88828H3.88002H3.87175H3.86349H3.85523H3.84697H3.83871H3.83045H3.8222H3.81394H3.80569H3.79744H3.7892H3.78095H3.77271H3.76447H3.75624H3.748H3.73977H3.73155H3.72333H3.71511H3.70689H3.69868H3.69047H3.68226H3.67406H3.66587H3.65767H3.64949H3.6413H3.63313H3.62495H3.61678H3.60862H3.60046H3.59231H3.58416H3.57602H3.56788H3.55975H3.55162H3.5435H3.53539H3.52728H3.51918H3.51109H3.503H3.49492H3.48685H3.47878H3.47072H3.46267H3.45462H3.44658H3.43855H3.43053H3.42252H3.41451H3.40651H3.39852H3.39054H3.38256H3.3746H3.36664H3.35869H3.35076H3.34283H3.33491H3.32699H3.31909H3.3112H3.30332H3.29544H3.28758H3.27973H3.27188H3.26405H3.25623H3.24842H3.24062H3.23282H3.22504H3.21728H3.20952H3.20177H3.19404H3.18631H3.1786H3.1709H3.16321H3.15554H3.14787H3.14022H3.13258H3.12495H3.11734H3.10973H3.10214H3.09457H3.08701H3.07945H3.07192H3.06439H3.05688H3.04939H3.0419H3.03444H3.02698H3.01954H3.01211H3.0047H2.9973H2.98992H2.98255H2.9752H2.96786H2.96054H2.95323H2.94594H2.93866H2.9314H2.92415H2.91692H2.90971H2.90251H2.89533H2.88816H2.88101H2.87388H2.86677H2.85967H2.85258H2.84552H2.83847H2.83144H2.82443H2.81743H2.81046H2.8035H2.79655H2.78963H2.78272H2.77584H2.76896H2.76211H2.75528H2.74847H2.74167H2.7349H2.72814H2.72141H2.71469H2.70799H2.70131H2.69465H2.68801H2.68139H2.67479H2.66821H2.66165H2.65512H2.6486H2.6421H2.63563H2.62917H2.62274H2.61632H2.60993H2.60356H2.59721H2.59089H2.58458H2.5783H2.57203H2.5658H2.55958H2.55338H2.54721H2.54106H2.53494H2.52883H2.52275H2.51669H2.51066H2.50465H2.49866H2.4927H2.48676H2.48084H2.47495H2.46908H2.46324H2.45742H2.45162H2.44585H2.44011H2.43438H2.42869H2.42302H2.41737H2.41175H2.40615H2.40059H2.39504H2.38952H2.38403H2.37856H2.37312H2.36771H2.36232H2.35696H2.35163H2.34632H2.34104H2.33579H2.33056H2.32536H2.32019H2.31504H2.30993H2.30484H2.29978H2.29474H2.28974H2.28476H2.27982H2.27489H2.27H2.26514H2.26031H2.2555H2.25073H2.24598H2.24126H2.23657H2.23192H2.22729H2.22269H2.21812H2.21358H2.20907H2.20459H2.20015H2.19573H2.19134H2.18699H2.18266H2.17837H2.1741H2.16987H2.16567H2.1615H2.15737H2.15326H2.14919H2.14515H2.14114H2.13716H2.13321H2.1293H2.12542H2.12157H2.11776H2.11398H2.11023H2.10652H2.10283H2.09919H2.09557H2.09199H2.08844H2.08493H2.08145H2.078H2.07459H2.07122H2.06788H2.06457H2.0613H2.05806H2.05486H2.05169H2.04856H2.04546H2.0424H2.03938H2.03639H2.03343H2.03051H2.02763H2.02479H2.02198H2.01921H2.01647H2.01377H2.01111H2.00848H2.00589H2.00334C1.91629 16.5 1.87417 16.4868 1.85947 16.4807C1.85589 16.4792 1.8537 16.478 1.85257 16.4773C1.85031 16.4742 1.83891 16.4566 1.82818 16.4106C1.81664 16.3612 1.80871 16.291 1.80871 16.1946C1.80871 15.9191 1.96617 14.807 2.37033 13.7681C2.57093 13.2525 2.8183 12.7926 3.10796 12.4697C3.39302 12.1518 3.68587 12 4 12L4.06275 12C4.63219 12.0001 5.30486 12.0001 6.01677 11.9527H13.6222ZM22.1543 9.96282C22.2582 9.71525 22.4652 9.34076 22.7317 9.04464C23.0113 8.73404 23.2631 8.60905 23.4624 8.62224L23.5284 7.62443C22.8627 7.58036 22.3336 7.99212 21.9884 8.37569C21.8782 8.4982 21.7771 8.62819 21.686 8.75894C21.533 8.61884 21.3415 8.48949 21.106 8.38324C20.557 8.13549 20.0172 8.18825 19.5515 8.43161C19.1052 8.66478 18.7408 9.06303 18.461 9.4995L19.3029 10.0391C19.5277 9.6884 19.776 9.44257 20.0146 9.31791C20.2336 9.20345 20.4507 9.18465 20.6947 9.29473C21.1142 9.48406 21.1815 9.72969 21.1916 9.76654L21.1916 9.76654C21.193 9.77155 21.1933 9.7727 21.1933 9.76932L22.1543 9.96282ZM19.2606 14.5611C18.8472 14.7866 18.3925 15.1179 18.0341 15.49C17.6982 15.8388 17.3492 16.3236 17.3492 16.853C17.3492 17.0859 17.4552 17.2799 17.5538 17.4135C17.658 17.5547 17.7938 17.6828 17.9383 17.7945C18.2281 18.0184 18.6079 18.2187 19.0066 18.3516C19.402 18.4833 19.8562 18.562 20.2864 18.5001C20.7314 18.4361 21.1689 18.2154 21.4349 17.7468C21.563 17.521 21.6662 17.3027 21.7482 17.0949C22.133 17.5681 22.7123 18 23.5 18V17C23.1071 17 22.7787 16.7867 22.5049 16.44C22.2285 16.0902 22.0551 15.6587 21.9851 15.3787L21.0148 15.6205C21.0408 15.7254 21.0738 16.357 20.5652 17.2532C20.4845 17.3954 20.3548 17.48 20.1441 17.5103C19.9185 17.5428 19.6283 17.5047 19.3227 17.4028C19.0203 17.3021 18.7424 17.1521 18.5498 17.0032C18.453 16.9284 18.3914 16.8645 18.3585 16.8199L18.3528 16.8118C18.3731 16.6845 18.4838 16.4646 18.7543 16.1838C19.0344 15.893 19.4052 15.6213 19.7395 15.4389L19.2606 14.5611ZM18.3386 16.7885L18.3397 16.791C18.3389 16.7893 18.3385 16.7885 18.3386 16.7885ZM7.99998 19C9.10455 19 9.99998 18.1045 9.99998 17C9.99998 15.8954 9.10455 15 7.99998 15C6.89541 15 5.99998 15.8954 5.99998 17C5.99998 18.1045 6.89541 19 7.99998 19Z" fill="#221A22"/>
</svg>
