<svg width="24" height="24" viewBox="0 0 24 24" fill="none" xmlns="http://www.w3.org/2000/svg">
<path fill-rule="evenodd" clip-rule="evenodd" d="M5.30924 1.56264C5.24653 1.62535 5.18493 1.7264 5.15326 1.85309C5.11895 1.99032 4.92891 2.70604 4.68086 3.63636H6.11915C5.8711 2.70604 5.68106 1.99032 5.64675 1.85309C5.61508 1.7264 5.55347 1.62535 5.49077 1.56264C5.44148 1.51336 5.40854 1.50275 5.4 1.50054C5.39146 1.50275 5.35852 1.51336 5.30924 1.56264ZM4.41398 4.63636L4.20631 5.41364H6.5937L6.38602 4.63636H4.41398ZM6.8611 6.41364L7.15304 7.50455H3.64697L3.93891 6.41364H6.8611ZM7.72797 5.78446C7.89306 6.4018 8.05289 6.99899 8.18826 7.50455H8.22267C9.01847 7.50455 9.66358 8.14966 9.66358 8.94546C9.66358 9.74125 9.01847 10.3864 8.22267 10.3864H2.36813C1.57234 10.3864 0.927219 9.74125 0.927219 8.94546C0.927219 8.14966 1.57234 7.50455 2.36813 7.50455H2.61174C2.74711 6.99899 2.90694 6.4018 3.07204 5.78446C3.23116 5.18947 3.39516 4.57579 3.54689 4.00741C3.87532 2.77701 4.14393 1.76727 4.18311 1.61055C4.25599 1.31905 4.40347 1.0542 4.60213 0.855538C4.79759 0.660081 5.07454 0.5 5.4 0.5C5.72546 0.5 6.00242 0.660081 6.19787 0.855538C6.39653 1.0542 6.54402 1.31905 6.61689 1.61055C6.65607 1.76727 6.92468 2.77701 7.25312 4.00741C7.40484 4.57579 7.56885 5.18947 7.72797 5.78446ZM16.3829 0.869406C16.6659 0.528395 17.1905 0.532749 17.4677 0.878413L20.1293 4.19689C20.4968 4.65509 20.1706 5.33486 19.5832 5.33486H18.8031V9.53932C18.8031 9.9619 18.6248 10.3649 18.3121 10.6492L9.42124 18.7329C9.31702 18.8277 9.2576 18.962 9.2576 19.1029V22.6C9.2576 23.0971 8.85466 23.5 8.3576 23.5H6.40003C5.90297 23.5 5.50003 23.0971 5.50003 22.6V17.7946C5.50003 17.3688 5.68098 16.9631 5.99778 16.6786L14.7735 8.79756C14.8791 8.70273 14.9394 8.56748 14.9394 8.42555V5.33486H14.1683C13.5755 5.33486 13.251 4.64409 13.6296 4.18789L16.3829 0.869406ZM16.9177 1.79096L14.807 4.33486H15.2394C15.626 4.33486 15.9394 4.64826 15.9394 5.03486V8.42555C15.9394 8.85134 15.7585 9.25707 15.4417 9.54157L6.66595 17.4226C6.56035 17.5175 6.50003 17.6527 6.50003 17.7946V22.5H8.2576V19.1029C8.2576 18.6803 8.43585 18.2773 8.74852 17.993L17.6394 9.90927C17.7436 9.81451 17.8031 9.68018 17.8031 9.53932V5.03486C17.8031 4.64826 18.1165 4.33486 18.5031 4.33486H18.958L16.9177 1.79096ZM18.5622 14.9667C18.5939 14.84 18.6555 14.739 18.7182 14.6763C18.7675 14.627 18.8005 14.6164 18.809 14.6142C18.8175 14.6164 18.8505 14.627 18.8998 14.6763C18.9625 14.739 19.0241 14.84 19.0557 14.9667C19.09 15.1039 19.2801 15.8197 19.5281 16.75H18.0898C18.3379 15.8197 18.5279 15.1039 18.5622 14.9667ZM17.6153 18.5273L17.823 17.75H19.795L20.0027 18.5273H17.6153ZM20.562 20.6182C20.4716 20.2804 20.3727 19.9107 20.2701 19.5273H17.3479C17.2453 19.9107 17.1464 20.2804 17.056 20.6182H20.562ZM21.5973 20.6182C21.4619 20.1126 21.3021 19.5154 21.137 18.8981C20.9778 18.3031 20.8138 17.6894 20.6621 17.121C20.3337 15.8906 20.0651 14.8809 20.0259 14.7242C19.953 14.4327 19.8055 14.1678 19.6069 13.9692C19.4114 13.7737 19.1345 13.6136 18.809 13.6136C18.4835 13.6136 18.2066 13.7737 18.0111 13.9692C17.8125 14.1678 17.665 14.4327 17.5921 14.7242C17.5529 14.8809 17.2843 15.8906 16.9559 17.121C16.8042 17.6894 16.6401 18.3031 16.481 18.8981C16.3159 19.5154 16.1561 20.1126 16.0207 20.6182H15.7771C14.9813 20.6182 14.3362 21.2633 14.3362 22.0591C14.3362 22.8549 14.9813 23.5 15.7771 23.5H21.6317C22.4275 23.5 23.0726 22.8549 23.0726 22.0591C23.0726 21.2633 22.4275 20.6182 21.6317 20.6182H21.5973ZM2.36813 8.50455C2.12462 8.50455 1.92722 8.70195 1.92722 8.94546C1.92722 9.18896 2.12462 9.38636 2.36813 9.38636H8.22267C8.46618 9.38636 8.66358 9.18896 8.66358 8.94546C8.66358 8.70195 8.46618 8.50455 8.22267 8.50455H2.9954H2.36813ZM15.3362 22.0591C15.3362 21.8156 15.5336 21.6182 15.7771 21.6182H16.4044H21.6317C21.8752 21.6182 22.0726 21.8156 22.0726 22.0591C22.0726 22.3026 21.8752 22.5 21.6317 22.5H15.7771C15.5336 22.5 15.3362 22.3026 15.3362 22.0591Z" fill="#221A22"/>
</svg>
