<svg width="46" height="10" viewBox="0 0 46 10" fill="none" xmlns="http://www.w3.org/2000/svg">
<g clip-path="url(#clip0_1025_5287)">
<path d="M0 1.77748V0H8.02058V1.77748H5.08556V10H2.94854V1.77748H0Z" fill="#F6F6F6" fill-opacity="0.4"/>
<path d="M8.61572 0H10.604L12.1594 7.10991L14.0394 0H15.7842L17.6507 6.98779L19.1926 0H21.1809L18.9762 10H16.6228L14.8915 3.4464L13.1738 10H10.8204L8.61572 0Z" fill="#F6F6F6" fill-opacity="0.4"/>
<path d="M22.52 10V0H24.657V10H22.52Z" fill="#F6F6F6" fill-opacity="0.4"/>
<path d="M26.7129 10V0H29.2151L33.6244 7.05563V0H35.7614V10H33.2592L28.8499 2.94437V10H26.7129Z" fill="#F6F6F6" fill-opacity="0.4"/>
<path d="M37.3843 6.77067H39.6024C39.6024 7.232 39.8053 7.59835 40.2111 7.88329C40.6169 8.15466 41.1849 8.30392 41.9153 8.30392C42.4698 8.30392 42.9162 8.19537 43.2543 7.99184C43.5925 7.77474 43.7683 7.50337 43.7683 7.17773C43.7683 6.90636 43.6601 6.67569 43.4437 6.51287C43.2273 6.33648 42.9297 6.2008 42.578 6.11938C42.2264 6.0244 41.8341 5.94299 41.4013 5.87515C40.9685 5.80731 40.5492 5.69876 40.1164 5.57664C39.6836 5.45453 39.2914 5.27814 38.9397 5.08818C38.588 4.88465 38.304 4.58614 38.0741 4.19265C37.8577 3.79917 37.7495 3.32427 37.7495 2.76796C37.7495 2.02169 38.1147 1.38397 38.845 0.827661C39.5754 0.28492 40.5628 0.0135498 41.8206 0.0135498C42.551 0.0135498 43.1867 0.108529 43.7277 0.298489C44.2822 0.488448 44.7015 0.74625 44.9991 1.07189C45.2967 1.39754 45.5266 1.72318 45.6754 2.07596C45.8242 2.42875 45.8918 2.78153 45.8918 3.16145H43.6736C43.6736 2.74082 43.5248 2.38804 43.2273 2.11667C42.9297 1.8453 42.4563 1.70961 41.8206 1.70961C41.2931 1.70961 40.8468 1.80459 40.5087 1.99455C40.157 2.18451 39.9812 2.44231 39.9812 2.76796C39.9812 3.0936 40.0894 3.33784 40.3058 3.54137C40.5222 3.74489 40.8197 3.89415 41.1714 3.98913C41.5231 4.08411 41.9153 4.16552 42.3481 4.24693C42.7809 4.32834 43.2137 4.42332 43.633 4.53187C44.0658 4.65398 44.4446 4.80324 44.8097 4.97963C45.1614 5.16959 45.4454 5.44096 45.6754 5.80731C45.8918 6.17366 46 6.63499 46 7.17773C46 7.99184 45.6483 8.6567 44.9315 9.19944C44.2146 9.74218 43.2137 9.99998 41.9018 9.99998C41.1038 9.99998 40.414 9.905 39.8053 9.71504C39.1967 9.52508 38.7233 9.28085 38.3852 8.9552C38.047 8.64313 37.79 8.30392 37.6142 7.924C37.4654 7.55765 37.3843 7.17773 37.3843 6.77067Z" fill="#F6F6F6" fill-opacity="0.4"/>
</g>
<defs>
<clipPath id="clip0_1025_5287">
<rect width="46" height="10" fill="white"/>
</clipPath>
</defs>
</svg>
