<svg width="24" height="24" viewBox="0 0 24 24" fill="none" xmlns="http://www.w3.org/2000/svg">
<path fill-rule="evenodd" clip-rule="evenodd" d="M4.92846 0.206612C5.0225 0.0768318 5.17306 0 5.33333 0H18.6667C18.8269 0 18.9775 0.0768318 19.0715 0.206612L22.4049 4.80661C22.4667 4.89194 22.5 4.99462 22.5 5.1V5.5V21.2C22.5 21.9372 22.2172 22.6474 21.7087 23.1738C21.1996 23.7007 20.5054 24 19.7778 24H4.22222C3.49459 24 2.80038 23.7007 2.29129 23.1738C1.78277 22.6474 1.5 21.9372 1.5 21.2V5.5V5.1C1.5 4.99462 1.53329 4.89194 1.59513 4.80661L4.92846 0.206612ZM21.5 21.2V6H2.5V21.2C2.5 21.6828 2.68548 22.1426 3.01045 22.4789C3.33486 22.8147 3.77112 23 4.22222 23H19.7778C20.2289 23 20.6651 22.8147 20.9895 22.4789C21.3145 22.1426 21.5 21.6828 21.5 21.2ZM21.3101 5H2.68994L5.58849 1H18.4115L21.3101 5ZM7.5 9.5C7.5 9.22386 7.27614 9 7 9C6.72386 9 6.5 9.22386 6.5 9.5C6.5 10.9587 7.07946 12.3576 8.11091 13.3891C9.14236 14.4205 10.5413 15 12 15C13.4587 15 14.8576 14.4205 15.8891 13.3891C16.9205 12.3576 17.5 10.9587 17.5 9.5C17.5 9.22386 17.2761 9 17 9C16.7239 9 16.5 9.22386 16.5 9.5C16.5 10.6935 16.0259 11.8381 15.182 12.682C14.3381 13.5259 13.1935 14 12 14C10.8065 14 9.66193 13.5259 8.81802 12.682C7.97411 11.8381 7.5 10.6935 7.5 9.5Z" fill="#221A22"/>
</svg>
