<svg width="24" height="25" viewBox="0 0 24 25" fill="none" xmlns="http://www.w3.org/2000/svg">
<path fill-rule="evenodd" clip-rule="evenodd" d="M6.4338 1.63515C3.06701 2.06345 0.61216 5.43652 1.0577 9.25699C1.41776 12.3444 3.54948 14.6734 6.13115 15.2273V12.832L3.81171 10.3801C3.62194 10.1795 3.63073 9.86302 3.83133 9.67325C4.03193 9.48348 4.34839 9.49227 4.53816 9.69287L6.13115 11.3768V11.3241V6.02363C6.13115 5.74749 6.35501 5.52363 6.63115 5.52363C6.90729 5.52363 7.13115 5.74749 7.13115 6.02363V10.0723L9.7104 7.35841C9.90064 7.15824 10.2171 7.1502 10.4173 7.34043C10.6174 7.53067 10.6255 7.84715 10.4353 8.04731L7.13115 11.5238V12.6329V15.3503C7.42734 15.3601 7.72701 15.3465 8.02834 15.3082C8.41233 15.2593 8.78331 15.1728 9.1388 15.0523C8.88366 14.7118 8.73251 14.2889 8.73251 13.8307C8.73251 12.7047 9.64533 11.7919 10.7714 11.7919H12.7729C12.7741 11.7258 12.7885 11.6588 12.8173 11.5945C13.3395 10.432 13.5677 9.08597 13.4044 7.68632C12.9589 3.86585 9.80058 1.20685 6.4338 1.63515ZM13.8164 11.7919C14.3491 10.5125 14.5713 9.05934 14.3964 7.56013C13.8974 3.28063 10.318 0.133032 6.31796 0.641884C2.31797 1.15074 -0.433376 5.10369 0.0656967 9.38318C0.478933 12.9266 3.00405 15.6941 6.13115 16.2523V20.7133C5.92332 20.7312 5.68808 20.7694 5.44773 20.8502C5.10448 20.4676 4.51303 20.0532 3.68785 20.0532C3.01308 20.0532 2.42119 20.2956 1.99776 20.726C1.5757 21.155 1.3483 21.7428 1.3483 22.3855C1.3483 22.8419 1.43233 23.2514 1.54436 23.5869H0.862823C0.586681 23.5869 0.362823 23.8108 0.362823 24.0869C0.362823 24.3631 0.586681 24.5869 0.862823 24.5869H2.33884H8.47071H9.6927L11.6939 24.5869L17.5415 24.5869L19.5705 24.5869L19.9329 24.5869H22.3243H23.5078C23.7839 24.5869 24.0078 24.3631 24.0078 24.0869C24.0078 23.8108 23.7839 23.5869 23.5078 23.5869H22.3243H20.9742C21.0266 23.4351 21.055 23.272 21.055 23.1024V20.999H21.4775C22.6035 20.999 23.5163 20.0862 23.5163 18.9602C23.5163 17.8342 22.6035 16.9214 21.4775 16.9214H20.0704V15.8696H20.493C21.619 15.8696 22.5318 14.9568 22.5318 13.8307C22.5318 12.7047 21.619 11.7919 20.493 11.7919H13.8164ZM19.0704 15.8696V16.9214H12.1939V15.8696H19.0704ZM11.1939 15.8696V16.9214H9.78673C8.66071 16.9214 7.74789 17.8342 7.74789 18.9602C7.74789 20.0862 8.66071 20.999 9.78673 20.999H10.2093V23.1024C10.2093 23.272 10.2378 23.4351 10.2902 23.5869H9.6927H9.24014L9.24024 23.5767C9.24024 22.6977 8.95683 21.9724 8.46794 21.4635C8.10017 21.0808 7.6338 20.8394 7.13115 20.744V16.3534C7.46466 16.3616 7.80289 16.3448 8.14417 16.3014C8.75552 16.2237 9.33977 16.0643 9.88861 15.8345C9.94681 15.8101 9.9981 15.7761 10.0414 15.735C10.268 15.8219 10.5141 15.8696 10.7714 15.8696H11.1939ZM17.5415 23.5869H18.1668C18.1144 23.4351 18.0859 23.272 18.0859 23.1024V20.999H13.1784V23.1024C13.1784 23.272 13.15 23.4351 13.0976 23.5869H17.5415ZM19.0859 23.1024C19.0859 23.37 19.3029 23.5869 19.5705 23.5869C19.8381 23.5869 20.055 23.37 20.055 23.1024V21.3387H19.0859V23.1024ZM11.6939 23.5869C11.4263 23.5869 11.2093 23.37 11.2093 23.1024V21.3387H12.1784V23.1024C12.1784 23.37 11.9615 23.5869 11.6939 23.5869ZM2.62201 23.5869H8.24034L8.24024 23.5767C8.24024 22.9169 8.03137 22.4525 7.74684 22.1564C7.46086 21.8587 7.06693 21.6973 6.63115 21.6973C6.2685 21.6973 5.87444 21.7056 5.53125 21.9029L5.08455 22.1595L4.84135 21.7053C4.73372 21.5043 4.32874 21.0532 3.68785 21.0532C3.2589 21.0532 2.93101 21.2033 2.71059 21.4274C2.48881 21.6528 2.3483 21.9811 2.3483 22.3855C2.3483 22.9087 2.49933 23.3379 2.62201 23.5869ZM9.73251 13.8307C9.73251 13.257 10.1976 12.7919 10.7714 12.7919H20.493C21.0667 12.7919 21.5318 13.257 21.5318 13.8307C21.5318 14.4045 21.0667 14.8696 20.493 14.8696H10.7714C10.1976 14.8696 9.73251 14.4045 9.73251 13.8307ZM9.78673 17.9214C9.213 17.9214 8.74789 18.3865 8.74789 18.9602C8.74789 19.5339 9.213 19.999 9.78673 19.999H21.4775C22.0512 19.999 22.5163 19.5339 22.5163 18.9602C22.5163 18.3865 22.0512 17.9214 21.4775 17.9214H9.78673Z" fill="#221A22"/>
</svg>
