<svg width="24" height="24" viewBox="0 0 24 24" fill="none" xmlns="http://www.w3.org/2000/svg">
<path fill-rule="evenodd" clip-rule="evenodd" d="M19.231 7.10534C19.3035 7.08221 19.399 7.12847 19.4945 7.2557C19.4945 7.2557 19.4945 7.2557 23.8109 11.5198C24.0631 11.7743 24.0631 12.1598 23.8109 12.3487C23.8109 12.3487 23.8109 12.3487 19.4945 16.6784C19.399 16.8056 19.3035 16.8364 19.231 16.7979C19.1584 16.7593 19.1125 16.6475 19.1125 16.4856V7.38293C19.1125 7.22486 19.1584 7.12847 19.231 7.10534Z" fill="#221A22"/>
<path fill-rule="evenodd" clip-rule="evenodd" d="M11.8472 0H12.1528L12.4469 0.123374C12.4469 0.123374 12.4469 0.123374 16.8894 4.58024C17.0804 4.8347 17.0155 5.02747 16.6984 5.02747C16.6984 5.02747 16.6984 5.02747 14.8573 5.02747C14.5402 5.02747 14.2881 5.28193 14.2881 5.60193C14.2881 5.60193 14.2881 5.60193 14.2881 8.90988C14.2881 9.22988 14.0322 9.48434 13.6502 9.48434C13.6502 9.48434 13.6502 9.48434 10.4148 9.48434C10.0977 9.48434 9.84182 9.22988 9.84182 8.90988C9.84182 8.90988 9.84182 8.90988 9.84182 5.60193C9.84182 5.28193 9.58971 5.02747 9.26884 5.02747H7.30163C6.98458 5.02747 6.91965 4.8347 7.11064 4.58024C7.11064 4.58024 7.11064 4.58024 11.5569 0.123374L11.8472 0Z" fill="#221A22"/>
<path fill-rule="evenodd" clip-rule="evenodd" d="M4.88747 7.00918C4.96769 7.04773 5.01735 7.15954 5.01735 7.32147V16.613C5.01735 16.775 4.96769 16.8714 4.88747 16.9022C4.81108 16.933 4.7003 16.9022 4.57043 16.8058C4.57043 16.8058 4.57043 16.8058 0.189082 12.3489C-0.0630272 12.16 -0.0630272 11.7745 0.189082 11.52C0.189082 11.52 0.189082 11.52 4.57043 7.1287C4.7003 7.00147 4.81108 6.97063 4.88747 7.00918Z" fill="#221A22"/>
<path fill-rule="evenodd" clip-rule="evenodd" d="M10.4148 14.3228C10.4148 14.3228 10.4148 14.3228 13.6502 14.3228C14.0322 14.3228 14.2881 14.5772 14.2881 14.8972C14.2881 14.8972 14.2881 14.8972 14.2881 18.3979C14.2881 18.7796 14.5402 19.0341 14.8573 19.0341H16.5724C16.8894 19.0341 17.0155 19.223 16.7634 19.4158C16.7634 19.4158 16.7634 19.4158 12.4469 23.8071C12.3171 23.9343 12.1605 23.9999 12 23.9999C11.8434 23.9999 11.683 23.9343 11.5569 23.8071C11.5569 23.8071 11.5569 23.8071 7.24051 19.4158C6.98458 19.223 7.11064 19.0341 7.42768 19.0341C7.42768 19.0341 7.42768 19.0341 9.26884 19.0341C9.58971 19.0341 9.84182 18.7796 9.84182 18.3979C9.84182 18.3979 9.84182 18.3979 9.84182 14.8972C9.84182 14.5772 10.0977 14.3228 10.4148 14.3228Z" fill="#221A22"/>
</svg>
