<svg width="24" height="24" viewBox="0 0 24 24" fill="none" xmlns="http://www.w3.org/2000/svg">
<path fill-rule="evenodd" clip-rule="evenodd" d="M0.999681 1C0.723539 1 0.499681 1.22386 0.499681 1.5C0.499681 1.77614 0.723539 2 0.999681 2H2.98708L3.53031 3.85889L4.89186 8.51804L6.25341 13.1772L7.16111 16.2833L7.26624 16.643H7.64103H20.937C21.2131 16.643 21.437 16.4192 21.437 16.143C21.437 15.8669 21.2131 15.643 20.937 15.643H8.01583L7.40036 13.5369H10.8504H16.8107H21.3955H21.8001L21.8845 13.1412L23.8712 3.8229L24.0001 3.21864H23.3822H17.5748H9.93344H4.38503L3.8418 1.35975L3.73667 1H3.36188H0.999681ZM10.2988 12.5369H7.10813L6.03881 8.87779H9.93871L10.2988 12.5369ZM9.8403 7.87779H5.74658L4.67726 4.21864H9.48023L9.8403 7.87779ZM10.8451 7.87779L10.4851 4.21864H17.0321L16.732 7.87779H10.8451ZM17.7354 7.87779L18.0355 4.21864H22.7644L21.9842 7.87779H17.7354ZM17.6534 8.87779H21.771L20.9908 12.5369H17.3533L17.6534 8.87779ZM16.65 8.87779L16.35 12.5369H11.3036L10.9435 8.87779H16.65ZM18.0993 18.5315L18.0993 18.5315C18.3518 18.2719 18.6906 18.1193 19.0604 18.1193C19.4302 18.1193 19.769 18.2719 20.0214 18.5315C20.2743 18.7916 20.4337 19.1531 20.4337 19.5598C20.4337 19.9665 20.2743 20.328 20.0214 20.588C19.7689 20.8477 19.4301 21.0003 19.0604 21.0003C18.6905 21.0003 18.3517 20.8477 18.0993 20.5881C17.8464 20.328 17.687 19.9664 17.687 19.5598C17.687 19.153 17.8464 18.7916 18.0993 18.5315ZM9.20556 18.5321L9.20615 18.5315C9.45861 18.2719 9.79742 18.1193 10.1672 18.1193C10.537 18.1193 10.8758 18.2719 11.1282 18.5315L11.1283 18.5315C11.3812 18.7916 11.5405 19.1531 11.5405 19.5598C11.5405 19.9665 11.3812 20.328 11.1283 20.588L11.1283 20.5881C10.8758 20.8477 10.537 21.0003 10.1672 21.0003C9.79741 21.0003 9.45859 20.8477 9.20616 20.5881L9.20615 20.5881C8.95321 20.328 8.79387 19.9664 8.79387 19.5598C8.79387 19.1526 8.95351 18.7908 9.20556 18.5321ZM12.5405 19.5598C12.5405 20.2336 12.2749 20.8433 11.8452 21.2852C11.4154 21.7271 10.8224 22.0003 10.1672 22.0003C9.51201 22.0003 8.91898 21.7271 8.48924 21.2852C8.05949 20.8433 7.79387 20.2335 7.79387 19.5598C7.79387 18.886 8.05948 18.2755 8.48924 17.8343C8.91899 17.3924 9.51201 17.1193 10.1672 17.1193C10.8224 17.1193 11.4154 17.3924 11.8452 17.8343C12.2749 18.2762 12.5405 18.886 12.5405 19.5598ZM17.3824 17.8343C17.8121 17.3924 18.4052 17.1193 19.0604 17.1193C19.7156 17.1193 20.3086 17.3924 20.7383 17.8343C21.1681 18.2762 21.4337 18.886 21.4337 19.5598C21.4337 20.2336 21.1681 20.8433 20.7383 21.2852C20.3086 21.7271 19.7156 22.0003 19.0604 22.0003C18.4051 22.0003 17.8121 21.7271 17.3824 21.2852C16.9527 20.8433 16.687 20.2335 16.687 19.5598C16.687 18.886 16.9526 18.2762 17.3824 17.8343Z" fill="#221A22"/>
</svg>
