<svg width="47" height="75" viewBox="0 0 47 75" fill="none" xmlns="http://www.w3.org/2000/svg">
<path d="M23.6093 3.15772e-06C35.851 3.15772e-06 46.6937 7.73114 46.6937 22.4906C46.6937 25.583 45.0614 30.1046 44.2453 31.9788L23.6093 74.5L2.97299 31.9788C2.15688 30.1046 0.524651 25.583 0.524651 22.4906C0.524651 7.73113 11.3676 3.15772e-06 23.6093 3.15772e-06Z" fill="#F6F6F6" fill-opacity="0.9"/>
<path fill-rule="evenodd" clip-rule="evenodd" d="M14.1259 24.9615H31.9893C31.8726 22.7543 30.9834 20.3791 29.1932 18.7146L24.3265 22.1767L23.7468 21.3618L28.3884 18.0599C27.9301 17.735 27.4244 17.4507 26.8692 17.2171L18.7415 23.041L18.159 22.2282L25.7026 16.8228C24.9091 16.6153 24.0292 16.5 23.0576 16.5C19.8772 16.5 17.6577 17.7348 16.2248 19.4503C14.8977 21.0393 14.2263 23.0651 14.1259 24.9615ZM15.4573 18.8093C17.0843 16.8613 19.5874 15.5 23.0576 15.5C24.5342 15.5 25.8397 15.7463 26.9802 16.184C27.9623 16.5609 28.8169 17.0778 29.5491 17.6945C31.9448 19.7127 33.0026 22.7728 33.0026 25.4615V25.9615H32.5026H13.6126H13.1126V25.4615C13.1126 23.2268 13.8421 20.7432 15.4573 18.8093ZM15.076 28.0821C15.7501 27.7078 16.7267 27.3846 18.1047 27.3846C19.0022 27.3846 19.8374 27.54 20.5607 27.8175H25.4393C26.1626 27.54 26.9978 27.3846 27.8953 27.3846C29.2733 27.3846 30.2499 27.7078 30.924 28.0821C31.519 28.4124 31.865 28.7784 32.0059 28.9274C32.024 28.9466 32.0388 28.9622 32.0502 28.9737C32.2785 29.2024 32.6672 29.5192 33.0785 29.5192C33.4606 29.5192 33.8469 29.6053 34.1307 29.8895C34.4143 30.1736 34.5 30.5601 34.5 30.9423C34.5 31.3245 34.4143 31.711 34.1307 31.9951C33.8469 32.2793 33.4606 32.3654 33.0785 32.3654C32.6672 32.3654 32.2785 32.6822 32.0502 32.9109C32.0388 32.9224 32.024 32.938 32.0059 32.9572C31.865 33.1062 31.519 33.4722 30.924 33.8025C30.2499 34.1768 29.2733 34.5 27.8953 34.5C26.515 34.5 25.2756 34.1319 24.3667 33.5115C23.7292 33.0764 23.2366 32.5015 23 31.8347C22.7634 32.5015 22.2708 33.0764 21.6333 33.5115C20.7244 34.1319 19.485 34.5 18.1047 34.5C16.7267 34.5 15.7501 34.1768 15.076 33.8025C14.481 33.4722 14.135 33.1062 13.9941 32.9572C13.976 32.938 13.9612 32.9224 13.9498 32.9109C13.7215 32.6822 13.3328 32.3654 12.9215 32.3654C12.5394 32.3654 12.1531 32.2793 11.8693 31.9951C11.5857 31.711 11.5 31.3245 11.5 30.9423C11.5 30.5601 11.5857 30.1736 11.8693 29.8895C12.1531 29.6053 12.5394 29.5192 12.9215 29.5192C13.3328 29.5192 13.7215 29.2024 13.9498 28.9737C13.9612 28.9622 13.976 28.9466 13.9941 28.9274C14.135 28.7784 14.481 28.4124 15.076 28.0821ZM23 30.0471C23.1628 29.5885 23.447 29.1742 23.8185 28.8175H22.1815C22.553 29.1742 22.8372 29.5885 23 30.0471ZM14.7168 29.6188C14.6946 29.642 14.675 29.6627 14.6575 29.6802C14.4251 29.913 13.7772 30.5192 12.9215 30.5192C12.67 30.5192 12.5956 30.5774 12.577 30.596C12.5583 30.6148 12.5 30.6899 12.5 30.9423C12.5 31.1947 12.5583 31.2698 12.577 31.2886C12.5956 31.3072 12.67 31.3654 12.9215 31.3654C13.7772 31.3654 14.4251 31.9716 14.6575 32.2044C14.675 32.222 14.6946 32.2426 14.7168 32.2658C14.8599 32.416 15.1083 32.6767 15.5614 32.9282C16.0824 33.2175 16.8911 33.5 18.1047 33.5C19.316 33.5 20.3515 33.1757 21.0695 32.6856C21.7892 32.1944 22.1545 31.568 22.1545 30.9423C22.1545 30.1187 21.5075 29.2767 20.2789 28.7812C19.6623 28.5325 18.9221 28.3846 18.1047 28.3846C16.8911 28.3846 16.0824 28.6672 15.5614 28.9564C15.1083 29.2079 14.8599 29.4687 14.7168 29.6188ZM27.8953 28.3846C27.0779 28.3846 26.3377 28.5325 25.7211 28.7812C24.4925 29.2767 23.8455 30.1187 23.8455 30.9423C23.8455 31.568 24.2108 32.1944 24.9305 32.6856C25.6485 33.1757 26.684 33.5 27.8953 33.5C29.1089 33.5 29.9176 33.2175 30.4386 32.9282C30.8917 32.6767 31.1401 32.416 31.2832 32.2658C31.3054 32.2426 31.325 32.222 31.3425 32.2044C31.5749 31.9716 32.2228 31.3654 33.0785 31.3654C33.33 31.3654 33.4044 31.3072 33.423 31.2886C33.4417 31.2698 33.5 31.1947 33.5 30.9423C33.5 30.6899 33.4417 30.6148 33.423 30.596C33.4044 30.5774 33.33 30.5192 33.0785 30.5192C32.2228 30.5192 31.5749 29.913 31.3425 29.6802C31.325 29.6627 31.3054 29.642 31.2832 29.6188C31.1401 29.4687 30.8917 29.2079 30.4386 28.9564C29.9176 28.6672 29.1089 28.3846 27.8953 28.3846ZM16.2841 30.2064C15.831 30.4154 15.6675 30.6666 15.6675 30.9423C15.6675 31.218 15.831 31.4692 16.2841 31.6782C16.7414 31.8892 17.3961 32 18.1047 32C18.8134 32 19.468 31.8892 19.9254 31.6782C20.3784 31.4692 20.5419 31.218 20.5419 30.9423C20.5419 30.6666 20.3784 30.4154 19.9254 30.2064C19.468 29.9954 18.8134 29.8846 18.1047 29.8846C17.3961 29.8846 16.7414 29.9954 16.2841 30.2064ZM15.8652 29.2984C16.502 29.0046 17.316 28.8846 18.1047 28.8846C18.8934 28.8846 19.7074 29.0046 20.3443 29.2984C20.9855 29.5942 21.5419 30.1218 21.5419 30.9423C21.5419 31.7628 20.9855 32.2904 20.3443 32.5862C19.7074 32.88 18.8934 33 18.1047 33C17.316 33 16.502 32.88 15.8652 32.5862C15.224 32.2904 14.6675 31.7628 14.6675 30.9423C14.6675 30.1218 15.224 29.5942 15.8652 29.2984ZM26.0746 30.2064C25.6216 30.4154 25.4581 30.6666 25.4581 30.9423C25.4581 31.218 25.6216 31.4692 26.0746 31.6782C26.532 31.8892 27.1866 32 27.8953 32C28.6039 32 29.2586 31.8892 29.7159 31.6782C30.169 31.4692 30.3325 31.218 30.3325 30.9423C30.3325 30.6666 30.169 30.4154 29.7159 30.2064C29.2586 29.9954 28.6039 29.8846 27.8953 29.8846C27.1866 29.8846 26.532 29.9954 26.0746 30.2064ZM25.6557 29.2984C26.2926 29.0046 27.1066 28.8846 27.8953 28.8846C28.684 28.8846 29.498 29.0046 30.1348 29.2984C30.776 29.5942 31.3325 30.1218 31.3325 30.9423C31.3325 31.7628 30.776 32.2904 30.1348 32.5862C29.498 32.88 28.684 33 27.8953 33C27.1066 33 26.2926 32.88 25.6557 32.5862C25.0145 32.2904 24.4581 31.7628 24.4581 30.9423C24.4581 30.1218 25.0145 29.5942 25.6557 29.2984Z" fill="#221A22"/>
</svg>
