<svg width="47" height="75" viewBox="0 0 47 75" fill="none" xmlns="http://www.w3.org/2000/svg">
<path d="M23.6093 3.15772e-06C35.851 3.15772e-06 46.6937 7.73114 46.6937 22.4906C46.6937 25.583 45.0614 30.1046 44.2453 31.9788L23.6093 74.5L2.97299 31.9788C2.15688 30.1046 0.524651 25.583 0.524651 22.4906C0.524651 7.73113 11.3676 3.15772e-06 23.6093 3.15772e-06Z" fill="#F6F6F6" fill-opacity="0.9"/>
<path fill-rule="evenodd" clip-rule="evenodd" d="M13.3383 19.3947H13.4167H18.5278H27.8958C27.8251 18.9235 27.6541 18.6127 27.4506 18.4111C27.1802 18.1432 26.7839 18 26.2813 18H26.2603H26.2392H26.218H26.1969H26.1757H26.1545H26.1333H26.1121H26.0908H26.0695H26.0482H26.0268H26.0055H25.9841H25.9627H25.9412H25.9197H25.8983H25.8767H25.8552H25.8337H25.8121H25.7905H25.7689H25.7472H25.7255H25.7038H25.6821H25.6604H25.6386H25.6169H25.595H25.5732H25.5514H25.5295H25.5076H25.4857H25.4638H25.4418H25.4199H25.3979H25.3759H25.3538H25.3318H25.3097H25.2876H25.2655H25.2434H25.2212H25.1991H25.1769H25.1547H25.1324H25.1102H25.0879H25.0656H25.0433H25.021H24.9987H24.9763H24.954H24.9316H24.9092H24.8867H24.8643H24.8418H24.8193H24.7968H24.7743H24.7518H24.7293H24.7067H24.6841H24.6615H24.6389H24.6163H24.5936H24.571H24.5483H24.5256H24.5029H24.4802H24.4574H24.4347H24.4119H24.3891H24.3664H24.3435H24.3207H24.2979H24.275H24.2522H24.2293H24.2064H24.1835H24.1606H24.1376H24.1147H24.0917H24.0687H24.0458H24.0228H23.9998H23.9767H23.9537H23.9306H23.9076H23.8845H23.8614H23.8383H23.8152H23.7921H23.769H23.7458H23.7227H23.6995H23.6764H23.6532H23.63H23.6068H23.5836H23.5603H23.5371H23.5139H23.4906H23.4673H23.4441H23.4208H23.3975H23.3742H23.3509H23.3276H23.3042H23.2809H23.2576H23.2342H23.2108H23.1875H23.1641H23.1407H23.1173H23.0939H23.0705H23.0471H23.0237H23.0003H22.9768H22.9534H22.9299H22.9065H22.883H22.8595H22.8361H22.8126H22.7891H22.7656H22.7421H22.7186H22.6951H22.6716H22.6481H22.6246H22.601H22.5775H22.554H22.5304H22.5069H22.4833H22.4598H22.4362H22.4126H22.3891H22.3655H22.3419H22.3184H22.2948H22.2712H22.2476H22.224H22.2004H22.1769H22.1533H22.1297H22.1061H22.0825H22.0589H22.0353H22.0116H21.988H21.9644H21.9408H21.9172H21.8936H21.87H21.8464H21.8228H21.7991H21.7755H21.7519H21.7283H21.7047H21.6811H21.6574H21.6338H21.6102H21.5866H21.563H21.5394H21.5158H21.4922H21.4686H21.4449H21.4213H21.3977H21.3741H21.3505H21.3269H21.3033H21.2798H21.2562H21.2326H21.209H21.1854H21.1618H21.1383H21.1147H21.0911H21.0675H21.044H21.0204H20.9969H20.9733H20.9498H20.9262H20.9027H20.8792H20.8556H20.8321H20.8086H20.7851H20.7616H20.7381H20.7146H20.6911H20.6676H20.6441H20.6207H20.5972H20.5737H20.5503H20.5268H20.5034H20.4799H20.4565H20.4331H20.4097H20.3863H20.3629H20.3395H20.3161H20.2927H20.2694H20.246H20.2226H20.1993H20.176H20.1526H20.1293H20.106H20.0827H20.0594H20.0361H20.0129H19.9896H19.9663H19.9431H19.9199H19.8966H19.8734H19.8502H19.827H19.8038H19.7807H19.7575H19.7344H19.7112H19.6881H19.665H19.6419H19.6188H19.5957H19.5726H19.5495H19.5265H19.5035H19.4804H19.4574H19.4344H19.4114H19.3885H19.3655H19.3426H19.3196H19.2967H19.2738H19.2509H19.228H19.2052H19.1823H19.1595H19.1366H19.1138H19.091H19.0683H19.0455H19.0227H19H18.9773H18.9546H18.9319H18.9092H18.8866H18.8639H18.8413H18.8187H18.7961H18.7735H18.7509H18.7284H18.7059H18.6834H18.6609H18.6384H18.6159H18.5935H18.571H18.5486H18.5262H18.5039H18.4815H18.4592H18.4369H18.4146H18.3923H18.37H18.3478H18.3255H18.3033H18.2811H18.259H18.2368H18.2147H18.1926H18.1705H18.1484H18.1264H18.1043H18.0823H18.0603H18.0384H18.0164H17.9945H17.9726H17.9507H17.9288H17.907H17.8851H17.8633H17.8416H17.8198H17.7981H17.7764H17.7547H17.733H17.7113H17.6897H17.6681H17.6465H17.625H17.6034H17.5819H17.5604H17.539H17.5175H17.4961H17.4747H17.4534H17.432H17.4107H17.3894H17.3681H17.3469H17.3257H17.3045H17.2833H17.2621H17.241H17.2199H17.1989H17.1778H17.1568H17.1358H17.1148H17.0939H17.073H17.0521H17.0312H17.0104H16.9896H16.9688H16.948H16.9273H16.9066H16.8859H16.8653H16.8447H16.8241H16.8035H16.783H16.7625H16.742H16.7216H16.7011H16.6808H16.6604H16.6401H16.6198H16.5995H16.5792H16.559H16.5388H16.5187H16.4985H16.4784H16.4584H16.4383H16.4183H16.3984H16.3784H16.3585H16.3386H16.3188H16.2989H16.2792H16.2594H16.2397H16.22H16.2003H16.1807H16.1611H16.1415H16.122H16.1025H16.083H16.0636H16.0442H16.0248H16.0055H15.9861H15.9669H15.9476H15.9284H15.9093H15.8901H15.871H15.852H15.8329H15.8139H15.795H15.776H15.7571H15.7383H15.7194H15.7006H15.6819H15.6632H15.6445H15.6258H15.6072H15.5886H15.5701H15.5516H15.5331H15.5147H15.4963H15.4779H15.4596H15.4413H15.4231H15.4049H15.3867H15.3686H15.3505H15.3324H15.3144H15.2964H15.2784H15.2605H15.2427H15.2248H15.207H15.1893H15.1716H15.1539H15.1362H15.1186H15.1011H15.0836H15.0661H15.0486H15.0312H15.0139C14.2973 18 13.889 18.3065 13.6399 18.677C13.4892 18.9011 13.3933 19.1564 13.3383 19.3947ZM28.4085 18C28.6749 18.3742 28.8422 18.8418 28.9038 19.3947H32.5833H32.6617C32.6067 19.1564 32.5108 18.9011 32.3601 18.677C32.111 18.3065 31.7027 18 30.9861 18H30.9821H30.978H30.974H30.9699H30.9658H30.9616H30.9574H30.9532H30.949H30.9448H30.9405H30.9362H30.9319H30.9275H30.9231H30.9187H30.9143H30.9099H30.9054H30.9009H30.8964H30.8918H30.8873H30.8827H30.878H30.8734H30.8687H30.864H30.8593H30.8546H30.8498H30.845H30.8402H30.8353H30.8305H30.8256H30.8207H30.8157H30.8107H30.8058H30.8007H30.7957H30.7906H30.7856H30.7805H30.7753H30.7702H30.765H30.7598H30.7545H30.7493H30.744H30.7387H30.7334H30.728H30.7227H30.7173H30.7118H30.7064H30.7009H30.6954H30.6899H30.6844H30.6788H30.6732H30.6676H30.662H30.6563H30.6507H30.645H30.6392H30.6335H30.6277H30.6219H30.6161H30.6103H30.6044H30.5985H30.5926H30.5867H30.5807H30.5747H30.5687H30.5627H30.5566H30.5506H30.5445H30.5384H30.5322H30.526H30.5199H30.5137H30.5074H30.5012H30.4949H30.4886H30.4823H30.4759H30.4696H30.4632H30.4568H30.4503H30.4439H30.4374H30.4309H30.4244H30.4178H30.4113H30.4047H30.3981H30.3914H30.3848H30.3781H30.3714H30.3647H30.3579H30.3512H30.3444H30.3376H30.3307H30.3239H30.317H30.3101H30.3032H30.2963H30.2893H30.2823H30.2753H30.2683H30.2612H30.2542H30.2471H30.24H30.2328H30.2257H30.2185H30.2113H30.2041H30.1968H30.1896H30.1823H30.175H30.1677H30.1603H30.153H30.1456H30.1382H30.1307H30.1233H30.1158H30.1083H30.1008H30.0933H30.0857H30.0782H30.0706H30.0629H30.0553H30.0476H30.04H30.0323H30.0246H30.0168H30.0091H30.0013H29.9935H29.9856H29.9778H29.9699H29.9621H29.9542H29.9462H29.9383H29.9303H29.9223H29.9143H29.9063H29.8983H29.8902H29.8821H29.874H29.8659H29.8578H29.8496H29.8414H29.8332H29.825H29.8167H29.8085H29.8002H29.7919H29.7836H29.7752H29.7669H29.7585H29.7501H29.7417H29.7332H29.7248H29.7163H29.7078H29.6993H29.6908H29.6822H29.6736H29.665H29.6564H29.6478H29.6391H29.6305H29.6218H29.6131H29.6044H29.5956H29.5868H29.5781H29.5693H29.5604H29.5516H29.5427H29.5339H29.525H29.5161H29.5071H29.4982H29.4892H29.4802H29.4712H29.4622H29.4531H29.4441H29.435H29.4259H29.4168H29.4076H29.3985H29.3893H29.3801H29.3709H29.3617H29.3524H29.3432H29.3339H29.3246H29.3153H29.3059H29.2966H29.2872H29.2778H29.2684H29.259H29.2496H29.2401H29.2306H29.2211H29.2116H29.2021H29.1925H29.183H29.1734H29.1638H29.1542H29.1445H29.1349H29.1252H29.1155H29.1058H29.0961H29.0863H29.0766H29.0668H29.057H29.0472H29.0374H29.0275H29.0177H29.0078H28.9979H28.988H28.9781H28.9681H28.9582H28.9482H28.9382H28.9282H28.9181H28.9081H28.898H28.888H28.8779H28.8677H28.8576H28.8475H28.8373H28.8271H28.8169H28.8067H28.7965H28.7863H28.776H28.7657H28.7554H28.7451H28.7348H28.7244H28.7141H28.7037H28.6933H28.6829H28.6725H28.6621H28.6516H28.6411H28.6307H28.6201H28.6096H28.5991H28.5885H28.578H28.5674H28.5568H28.5462H28.5356H28.5249H28.5143H28.5036H28.4929H28.4822H28.4715H28.4607H28.45H28.4392H28.4284H28.4176H28.4085ZM33.0833 20.3947H33.2222H33.7222V19.8947C33.7222 19.4222 33.5937 18.7196 33.1899 18.1191C32.7682 17.4917 32.0584 17 30.9861 17H30.9821H30.978H30.974H30.9699H30.9658H30.9616H30.9574H30.9532H30.949H30.9448H30.9405H30.9362H30.9319H30.9275H30.9231H30.9187H30.9143H30.9099H30.9054H30.9009H30.8964H30.8918H30.8873H30.8827H30.878H30.8734H30.8687H30.864H30.8593H30.8546H30.8498H30.845H30.8402H30.8353H30.8305H30.8256H30.8207H30.8157H30.8107H30.8058H30.8007H30.7957H30.7906H30.7856H30.7805H30.7753H30.7702H30.765H30.7598H30.7545H30.7493H30.744H30.7387H30.7334H30.728H30.7227H30.7173H30.7118H30.7064H30.7009H30.6954H30.6899H30.6844H30.6788H30.6732H30.6676H30.662H30.6563H30.6507H30.645H30.6392H30.6335H30.6277H30.6219H30.6161H30.6103H30.6044H30.5985H30.5926H30.5867H30.5807H30.5747H30.5687H30.5627H30.5566H30.5506H30.5445H30.5384H30.5322H30.526H30.5199H30.5137H30.5074H30.5012H30.4949H30.4886H30.4823H30.4759H30.4696H30.4632H30.4568H30.4503H30.4439H30.4374H30.4309H30.4244H30.4178H30.4113H30.4047H30.3981H30.3914H30.3848H30.3781H30.3714H30.3647H30.3579H30.3512H30.3444H30.3376H30.3307H30.3239H30.317H30.3101H30.3032H30.2963H30.2893H30.2823H30.2753H30.2683H30.2612H30.2542H30.2471H30.24H30.2328H30.2257H30.2185H30.2113H30.2041H30.1968H30.1896H30.1823H30.175H30.1677H30.1603H30.153H30.1456H30.1382H30.1307H30.1233H30.1158H30.1083H30.1008H30.0933H30.0857H30.0782H30.0706H30.0629H30.0553H30.0476H30.04H30.0323H30.0246H30.0168H30.0091H30.0013H29.9935H29.9856H29.9778H29.9699H29.9621H29.9542H29.9462H29.9383H29.9303H29.9223H29.9143H29.9063H29.8983H29.8902H29.8821H29.874H29.8659H29.8578H29.8496H29.8414H29.8332H29.825H29.8167H29.8085H29.8002H29.7919H29.7836H29.7752H29.7669H29.7585H29.7501H29.7417H29.7332H29.7248H29.7163H29.7078H29.6993H29.6908H29.6822H29.6736H29.665H29.6564H29.6478H29.6391H29.6305H29.6218H29.6131H29.6044H29.5956H29.5868H29.5781H29.5693H29.5604H29.5516H29.5427H29.5339H29.525H29.5161H29.5071H29.4982H29.4892H29.4802H29.4712H29.4622H29.4531H29.4441H29.435H29.4259H29.4168H29.4076H29.3985H29.3893H29.3801H29.3709H29.3617H29.3524H29.3432H29.3339H29.3246H29.3153H29.3059H29.2966H29.2872H29.2778H29.2684H29.259H29.2496H29.2401H29.2306H29.2211H29.2116H29.2021H29.1925H29.183H29.1734H29.1638H29.1542H29.1445H29.1349H29.1252H29.1155H29.1058H29.0961H29.0863H29.0766H29.0668H29.057H29.0472H29.0374H29.0275H29.0177H29.0078H28.9979H28.988H28.9781H28.9681H28.9582H28.9482H28.9382H28.9282H28.9181H28.9081H28.898H28.888H28.8779H28.8677H28.8576H28.8475H28.8373H28.8271H28.8169H28.8067H28.7965H28.7863H28.776H28.7657H28.7554H28.7451H28.7348H28.7244H28.7141H28.7037H28.6933H28.6829H28.6725H28.6621H28.6516H28.6411H28.6307H28.6201H28.6096H28.5991H28.5885H28.578H28.5674H28.5568H28.5462H28.5356H28.5249H28.5143H28.5036H28.4929H28.4822H28.4715H28.4607H28.45H28.4392H28.4284H28.4176H28.4068H28.396H28.3852H28.3743H28.3634H28.3525H28.3416H28.3307H28.3198H28.3088H28.2979H28.2869H28.2759H28.2649H28.2539H28.2428H28.2318H28.2207H28.2096H28.1985H28.1874H28.1763H28.1652H28.154H28.1428H28.1316H28.1204H28.1092H28.098H28.0868H28.0755H28.0642H28.053H28.0417H28.0303H28.019H28.0077H27.9963H27.9849H27.9736H27.9622H27.9508H27.9393H27.9279H27.9164H27.905H27.8935H27.882H27.8705H27.859H27.8474H27.8359H27.8243H27.8127H27.8011H27.7895H27.7779H27.7663H27.7546H27.743H27.7313H27.7196H27.7079H27.6962H27.6845H27.6727H27.661H27.6492H27.6375H27.6257H27.6139H27.602H27.5902H27.5784H27.5665H27.5546H27.5428H27.5309H27.5189H27.507H27.4951H27.4831H27.4712H27.4592H27.4472H27.4352H27.4232H27.4112H27.3992H27.3871H27.3751H27.363H27.3509H27.3388H27.3267H27.3146H27.3024H27.2903H27.2781H27.2659H27.2538H27.2416H27.2294H27.2171H27.2049H27.1927H27.1804H27.1681H27.1559H27.1436H27.1313H27.1189H27.1066H27.0943H27.0819H27.0696H27.0572H27.0448H27.0324H27.02H27.0076H26.9951H26.9827H26.9702H26.9578H26.9453H26.9328H26.9203H26.9078H26.8952H26.8827H26.8702H26.8576H26.845H26.8325H26.8199H26.8073H26.7946H26.782H26.7694H26.7567H26.7441H26.7314H26.7187H26.706H26.6933H26.6806H26.6679H26.6552H26.6424H26.6297H26.6169H26.6041H26.5913H26.5785H26.5657H26.5529H26.5401H26.5272H26.5144H26.5015H26.4887H26.4758H26.4629H26.45H26.4371H26.4241H26.4112H26.3983H26.3853H26.3724H26.3594H26.3464H26.3334H26.3204H26.3074H26.2944H26.2813H26.2603H26.2392H26.218H26.1969H26.1757H26.1545H26.1333H26.1121H26.0908H26.0695H26.0482H26.0268H26.0055H25.9841H25.9627H25.9412H25.9197H25.8983H25.8767H25.8552H25.8337H25.8121H25.7905H25.7689H25.7472H25.7255H25.7038H25.6821H25.6604H25.6386H25.6169H25.595H25.5732H25.5514H25.5295H25.5076H25.4857H25.4638H25.4418H25.4199H25.3979H25.3759H25.3538H25.3318H25.3097H25.2876H25.2655H25.2434H25.2212H25.1991H25.1769H25.1547H25.1324H25.1102H25.0879H25.0656H25.0433H25.021H24.9987H24.9763H24.954H24.9316H24.9092H24.8867H24.8643H24.8418H24.8193H24.7968H24.7743H24.7518H24.7293H24.7067H24.6841H24.6615H24.6389H24.6163H24.5936H24.571H24.5483H24.5256H24.5029H24.4802H24.4574H24.4347H24.4119H24.3891H24.3664H24.3435H24.3207H24.2979H24.275H24.2522H24.2293H24.2064H24.1835H24.1606H24.1376H24.1147H24.0917H24.0687H24.0458H24.0228H23.9998H23.9767H23.9537H23.9306H23.9076H23.8845H23.8614H23.8383H23.8152H23.7921H23.769H23.7458H23.7227H23.6995H23.6764H23.6532H23.63H23.6068H23.5836H23.5603H23.5371H23.5139H23.4906H23.4673H23.4441H23.4208H23.3975H23.3742H23.3509H23.3276H23.3042H23.2809H23.2576H23.2342H23.2108H23.1875H23.1641H23.1407H23.1173H23.0939H23.0705H23.0471H23.0237H23.0003H22.9768H22.9534H22.9299H22.9065H22.883H22.8595H22.8361H22.8126H22.7891H22.7656H22.7421H22.7186H22.6951H22.6716H22.6481H22.6246H22.601H22.5775H22.554H22.5304H22.5069H22.4833H22.4598H22.4362H22.4126H22.3891H22.3655H22.3419H22.3184H22.2948H22.2712H22.2476H22.224H22.2004H22.1769H22.1533H22.1297H22.1061H22.0825H22.0589H22.0353H22.0116H21.988H21.9644H21.9408H21.9172H21.8936H21.87H21.8464H21.8228H21.7991H21.7755H21.7519H21.7283H21.7047H21.6811H21.6574H21.6338H21.6102H21.5866H21.563H21.5394H21.5158H21.4922H21.4686H21.4449H21.4213H21.3977H21.3741H21.3505H21.3269H21.3033H21.2798H21.2562H21.2326H21.209H21.1854H21.1618H21.1383H21.1147H21.0911H21.0675H21.044H21.0204H20.9969H20.9733H20.9498H20.9262H20.9027H20.8792H20.8556H20.8321H20.8086H20.7851H20.7616H20.7381H20.7146H20.6911H20.6676H20.6441H20.6207H20.5972H20.5737H20.5503H20.5268H20.5034H20.4799H20.4565H20.4331H20.4097H20.3863H20.3629H20.3395H20.3161H20.2927H20.2694H20.246H20.2226H20.1993H20.176H20.1526H20.1293H20.106H20.0827H20.0594H20.0361H20.0129H19.9896H19.9663H19.9431H19.9199H19.8966H19.8734H19.8502H19.827H19.8038H19.7807H19.7575H19.7344H19.7112H19.6881H19.665H19.6419H19.6188H19.5957H19.5726H19.5495H19.5265H19.5035H19.4804H19.4574H19.4344H19.4114H19.3885H19.3655H19.3426H19.3196H19.2967H19.2738H19.2509H19.228H19.2052H19.1823H19.1595H19.1366H19.1138H19.091H19.0683H19.0455H19.0227H19H18.9773H18.9546H18.9319H18.9092H18.8866H18.8639H18.8413H18.8187H18.7961H18.7735H18.7509H18.7284H18.7059H18.6834H18.6609H18.6384H18.6159H18.5935H18.571H18.5486H18.5262H18.5039H18.4815H18.4592H18.4369H18.4146H18.3923H18.37H18.3478H18.3255H18.3033H18.2811H18.259H18.2368H18.2147H18.1926H18.1705H18.1484H18.1264H18.1043H18.0823H18.0603H18.0384H18.0164H17.9945H17.9726H17.9507H17.9288H17.907H17.8851H17.8633H17.8416H17.8198H17.7981H17.7764H17.7547H17.733H17.7113H17.6897H17.6681H17.6465H17.625H17.6034H17.5819H17.5604H17.539H17.5175H17.4961H17.4747H17.4534H17.432H17.4107H17.3894H17.3681H17.3469H17.3257H17.3045H17.2833H17.2621H17.241H17.2199H17.1989H17.1778H17.1568H17.1358H17.1148H17.0939H17.073H17.0521H17.0312H17.0104H16.9896H16.9688H16.948H16.9273H16.9066H16.8859H16.8653H16.8447H16.8241H16.8035H16.783H16.7625H16.742H16.7216H16.7011H16.6808H16.6604H16.6401H16.6198H16.5995H16.5792H16.559H16.5388H16.5187H16.4985H16.4784H16.4584H16.4383H16.4183H16.3984H16.3784H16.3585H16.3386H16.3188H16.2989H16.2792H16.2594H16.2397H16.22H16.2003H16.1807H16.1611H16.1415H16.122H16.1025H16.083H16.0636H16.0442H16.0248H16.0055H15.9861H15.9669H15.9476H15.9284H15.9093H15.8901H15.871H15.852H15.8329H15.8139H15.795H15.776H15.7571H15.7383H15.7194H15.7006H15.6819H15.6632H15.6445H15.6258H15.6072H15.5886H15.5701H15.5516H15.5331H15.5147H15.4963H15.4779H15.4596H15.4413H15.4231H15.4049H15.3867H15.3686H15.3505H15.3324H15.3144H15.2964H15.2784H15.2605H15.2427H15.2248H15.207H15.1893H15.1716H15.1539H15.1362H15.1186H15.1011H15.0836H15.0661H15.0486H15.0312H15.0139C13.9416 17 13.2318 17.4917 12.8101 18.1191C12.4063 18.7196 12.2778 19.4222 12.2778 19.8947V20.3947H12.7778H12.9167V32H11.5C11.2239 32 11 32.2239 11 32.5C11 32.7761 11.2239 33 11.5 33H13.4167H18.5278H21.3611H24.5972H28.1111H32.5833H34.5C34.7761 33 35 32.7761 35 32.5C35 32.2239 34.7761 32 34.5 32H33.0833V20.3947ZM32.0833 20.3947H28.6111V27.4211V32H32.0833V20.3947ZM27.6111 32V27.9211H25.1769L24.486 28.9076L25.0185 32H27.6111ZM24.0038 32L23.4656 28.8743L23.4306 28.6714L23.5488 28.5027L24.4167 27.2634V24.9349L23.7009 24.4007L23.5 24.2507V24V24V24V23.9999V23.9999V23.9998V23.9997V23.9997V23.9996V23.9995V23.9994V23.9993V23.9991V23.999V23.9988V23.9987V23.9985V23.9983V23.9981V23.9979V23.9977V23.9975V23.9973V23.9971V23.9968V23.9965V23.9963V23.996V23.9957V23.9954V23.9951V23.9948V23.9945V23.9941V23.9938V23.9934V23.993V23.9927V23.9923V23.9919V23.9915V23.9911V23.9906V23.9902V23.9898V23.9893V23.9888V23.9884V23.9879V23.9874V23.9869V23.9864V23.9858V23.9853V23.9848V23.9842V23.9837V23.9831V23.9825V23.9819V23.9813V23.9807V23.9801V23.9795V23.9788V23.9782V23.9775V23.9769V23.9762V23.9755V23.9748V23.9741V23.9734V23.9727V23.972V23.9713V23.9705V23.9698V23.969V23.9682V23.9674V23.9666V23.9658V23.965V23.9642V23.9634V23.9625V23.9617V23.9608V23.96V23.9591V23.9582V23.9573V23.9564V23.9555V23.9546V23.9537V23.9528V23.9518V23.9509V23.9499V23.9489V23.948V23.947V23.946V23.945V23.944V23.9429V23.9419V23.9409V23.9398V23.9388V23.9377V23.9366V23.9356V23.9345V23.9334V23.9323V23.9311V23.93V23.9289V23.9277V23.9266V23.9254V23.9243V23.9231V23.9219V23.9207V23.9195V23.9183V23.9171V23.9159V23.9146V23.9134V23.9122V23.9109V23.9096V23.9084V23.9071V23.9058V23.9045V23.9032V23.9019V23.9006V23.8992V23.8979V23.8965V23.8952V23.8938V23.8925V23.8911V23.8897V23.8883V23.8869V23.8855V23.8841V23.8826V23.8812V23.8798V23.8783V23.8769V23.8754V23.8739V23.8724V23.871V23.8695V23.868V23.8664V23.8649V23.8634V23.8619V23.8603V23.8588V23.8572V23.8557V23.8541V23.8525V23.8509V23.8493V23.8477V23.8461V23.8445V23.8429V23.8412V23.8396V23.838V23.8363V23.8346V23.833V23.8313V23.8296V23.8279V23.8262V23.8245V23.8228V23.8211V23.8194V23.8176V23.8159V23.8141V23.8124V23.8106V23.8088V23.8071V23.8053V23.8035V23.8017V23.7999V23.7981V23.7963V23.7944V23.7926V23.7908V23.7889V23.7871V23.7852V23.7833V23.7815V23.7796V23.7777V23.7758V23.7739V23.772V23.7701V23.7681V23.7662V23.7643V23.7623V23.7604V23.7584V23.7565V23.7545V23.7525V23.7505V23.7485V23.7465V23.7445V23.7425V23.7405V23.7385V23.7365V23.7344V23.7324V23.7303V23.7283V23.7262V23.7242V23.7221V23.72V23.7179V23.7158V23.7137V23.7116V23.7095V23.7074V23.7053V23.7031V23.701V23.6989V23.6967V23.6945V23.6924V23.6902V23.688V23.6859V23.6837V23.6815V23.6793V23.6771V23.6749V23.6726V23.6704V23.6682V23.666V23.6637V23.6615V23.6592V23.657V23.6547V23.6524V23.6502V23.6479V23.6456V23.6433V23.641V23.6387V23.6364V23.6341V23.6317V23.6294V23.6271V23.6247V23.6224V23.62V23.6177V23.6153V23.6129V23.6106V23.6082V23.6058V23.6034V23.601V23.5986V23.5962V23.5938V23.5914V23.5889V23.5865V23.5841V23.5816V23.5792V23.5767V23.5743V23.5718V23.5694V23.5669V23.5644V23.5619V23.5594V23.5569V23.5545V23.5519V23.5494V23.5469V23.5444V23.5419V23.5393V23.5368V23.5343V23.5317V23.5292V23.5266V23.5241V23.5215V23.5189V23.5164V23.5138V23.5112V23.5086V23.506V23.5034V23.5008V23.4982V23.4956V23.493V23.4903V23.4877V23.4851V23.4824V23.4798V23.4771V23.4745V23.4718V23.4692V23.4665V23.4638V23.4611V23.4585V23.4558V23.4531V23.4504V23.4477V23.445V23.4423V23.4396V23.4368V23.4341V23.4314V23.4287V23.4259V23.4232V23.4204V23.4177V23.4149V23.4122V23.4094V23.4067V23.4039V23.4011V23.3983V23.3955V23.3928V23.39V23.3872V23.3844V23.3816V23.3788V23.3759V23.3731V23.3703V23.3675V23.3646V23.3618V23.359V23.3561V23.3533V23.3504V23.3476V23.3447V23.3419V23.339V23.3361V23.3333V23.3304V23.3275V23.3246V23.3217V23.3188V23.3159V23.313V23.3101V23.3072V23.3043V23.3014V23.2985V23.2955V23.2926V23.2897V23.2868V23.2838V23.2809V23.2779V23.275V23.272V23.2691V23.2661V23.2631V23.2602V23.2572V23.2542V23.2513V23.2483V23.2453V23.2423V23.2393V23.2363V23.2333V23.2303V23.2273V23.2243V23.2213V23.2183V23.2153V23.2122V23.2092V23.2062V23.2032V23.2001V23.1971V23.194V23.191V23.188V23.1849V23.1819V23.1788V23.1757V23.1727V23.1696V23.1665V23.1635V23.1604V23.1573V23.1542V23.1512V23.1481V23.145V23.1419V23.1388V23.1357V23.1326V23.1295V23.1264V23.1233V23.1202V23.117V23.1139V23.1108V23.1077V23.1046V23.1014V23.0983V23.0952V23.092V23.0889V23.0858V23.0826V23.0795V23.0763V23.0732V23.07V23.0668V23.0637V23.0605V23.0574V23.0542V23.051V23.0479V23.0447V23.0415V23.0383V23.0351V23.032V23.0288V23.0256V23.0224V23.0192V23.016V23.0128V23.0096V23.0064V23.0032V23C23.5 22.7904 23.4287 22.6816 23.3578 22.6193C23.2763 22.5479 23.15 22.5 23 22.5C22.9126 22.5 22.7834 22.5487 22.6661 22.6661C22.5487 22.7834 22.5 22.9126 22.5 23V23.0029V23.0059V23.0088V23.0117V23.0146V23.0176V23.0205V23.0234V23.0264V23.0293V23.0322V23.0351V23.0381V23.041V23.0439V23.0469V23.0498V23.0527V23.0556V23.0586V23.0615V23.0644V23.0673V23.0703V23.0732V23.0761V23.079V23.0819V23.0849V23.0878V23.0907V23.0936V23.0965V23.0995V23.1024V23.1053V23.1082V23.1111V23.114V23.1169V23.1199V23.1228V23.1257V23.1286V23.1315V23.1344V23.1373V23.1402V23.1431V23.146V23.1489V23.1518V23.1547V23.1576V23.1605V23.1634V23.1663V23.1692V23.1721V23.175V23.1779V23.1808V23.1836V23.1865V23.1894V23.1923V23.1952V23.198V23.2009V23.2038V23.2067V23.2095V23.2124V23.2153V23.2182V23.221V23.2239V23.2267V23.2296V23.2325V23.2353V23.2382V23.241V23.2439V23.2467V23.2496V23.2524V23.2553V23.2581V23.261V23.2638V23.2666V23.2695V23.2723V23.2751V23.278V23.2808V23.2836V23.2864V23.2892V23.2921V23.2949V23.2977V23.3005V23.3033V23.3061V23.3089V23.3117V23.3145V23.3173V23.3201V23.3229V23.3257V23.3285V23.3312V23.334V23.3368V23.3396V23.3424V23.3451V23.3479V23.3507V23.3534V23.3562V23.3589V23.3617V23.3644V23.3672V23.3699V23.3727V23.3754V23.3782V23.3809V23.3836V23.3863V23.3891V23.3918V23.3945V23.3972V23.3999V23.4026V23.4053V23.4081V23.4108V23.4134V23.4161V23.4188V23.4215V23.4242V23.4269V23.4296V23.4322V23.4349V23.4376V23.4402V23.4429V23.4455V23.4482V23.4508V23.4535V23.4561V23.4588V23.4614V23.464V23.4667V23.4693V23.4719V23.4745V23.4771V23.4797V23.4823V23.485V23.4875V23.4901V23.4927V23.4953V23.4979V23.5005V23.503V23.5056V23.5082V23.5107V23.5133V23.5159V23.5184V23.521V23.5235V23.526V23.5286V23.5311V23.5336V23.5361V23.5386V23.5412V23.5437V23.5462V23.5487V23.5512V23.5537V23.5561V23.5586V23.5611V23.5636V23.566V23.5685V23.571V23.5734V23.5759V23.5783V23.5807V23.5832V23.5856V23.588V23.5904V23.5929V23.5953V23.5977V23.6001V23.6025V23.6049V23.6073V23.6096V23.612V23.6144V23.6167V23.6191V23.6215V23.6238V23.6262V23.6285V23.6308V23.6332V23.6355V23.6378V23.6401V23.6424V23.6447V23.647V23.6493V23.6516V23.6539V23.6562V23.6585V23.6607V23.663V23.6652V23.6675V23.6697V23.672V23.6742V23.6764V23.6787V23.6809V23.6831V23.6853V23.6875V23.6897V23.6919V23.6941V23.6962V23.6984V23.7006V23.7027V23.7049V23.707V23.7092V23.7113V23.7134V23.7156V23.7177V23.7198V23.7219V23.724V23.7261V23.7282V23.7303V23.7323V23.7344V23.7365V23.7385V23.7406V23.7426V23.7447V23.7467V23.7487V23.7507V23.7528V23.7548V23.7568V23.7588V23.7607V23.7627V23.7647V23.7667V23.7686V23.7706V23.7725V23.7745V23.7764V23.7783V23.7802V23.7822V23.7841V23.786V23.7879V23.7897V23.7916V23.7935V23.7954V23.7972V23.7991V23.8009V23.8028V23.8046V23.8064V23.8082V23.81V23.8118V23.8136V23.8154V23.8172V23.819V23.8208V23.8225V23.8243V23.826V23.8278V23.8295V23.8312V23.8329V23.8346V23.8363V23.838V23.8397V23.8414V23.8431V23.8447V23.8464V23.848V23.8497V23.8513V23.8529V23.8546V23.8562V23.8578V23.8594V23.861V23.8625V23.8641V23.8657V23.8672V23.8688V23.8703V23.8718V23.8734V23.8749V23.8764V23.8779V23.8794V23.8809V23.8824V23.8838V23.8853V23.8867V23.8882V23.8896V23.8911V23.8925V23.8939V23.8953V23.8967V23.8981V23.8994V23.9008V23.9022V23.9035V23.9049V23.9062V23.9075V23.9089V23.9102V23.9115V23.9128V23.9141V23.9153V23.9166V23.9179V23.9191V23.9204V23.9216V23.9228V23.924V23.9252V23.9264V23.9276V23.9288V23.93V23.9312V23.9323V23.9335V23.9346V23.9357V23.9368V23.938V23.9391V23.9401V23.9412V23.9423V23.9434V23.9444V23.9455V23.9465V23.9475V23.9486V23.9496V23.9506V23.9516V23.9525V23.9535V23.9545V23.9554V23.9564V23.9573V23.9582V23.9591V23.96V23.9609V23.9618V23.9627V23.9636V23.9644V23.9653V23.9661V23.967V23.9678V23.9686V23.9694V23.9702V23.971V23.9717V23.9725V23.9732V23.974V23.9747V23.9754V23.9761V23.9768V23.9775V23.9782V23.9789V23.9796V23.9802V23.9808V23.9815V23.9821V23.9827V23.9833V23.9839V23.9845V23.9851V23.9856V23.9862V23.9867V23.9872V23.9877V23.9883V23.9888V23.9892V23.9897V23.9902V23.9906V23.9911V23.9915V23.9919V23.9924V23.9928V23.9932V23.9935V23.9939V23.9943V23.9946V23.995V23.9953V23.9956V23.9959V23.9962V23.9965V23.9968V23.997V23.9973V23.9975V23.9977V23.998V23.9982V23.9984V23.9986V23.9987V23.9989V23.999V23.9992V23.9993V23.9994V23.9995V23.9996V23.9997V23.9998V23.9999V23.9999V23.9999V24V24V24.2574L22.2905 24.4069L21.5417 24.9416V27.4211V27.4786L21.5286 27.5347L21.2322 28.8045L21.7824 32H24.0038ZM20.7677 32L20.2295 28.8743L20.2123 28.7745L20.2353 28.6758L20.4115 27.9211H19.0278V32H20.7677ZM18.0278 32V27.9211H15.5694C15.2933 27.9211 15.0694 27.6972 15.0694 27.4211C15.0694 27.1449 15.2933 26.9211 15.5694 26.9211H18.0278V20.3947H13.9167V32H18.0278ZM19.0278 20.3947V26.9211H20.5417V24.6842V24.4268L20.7511 24.2773L21.5 23.7426V23.7406V23.7385V23.7365V23.7344V23.7323V23.7303V23.7282V23.7261V23.724V23.7219V23.7198V23.7177V23.7156V23.7134V23.7113V23.7092V23.707V23.7049V23.7027V23.7006V23.6984V23.6962V23.6941V23.6919V23.6897V23.6875V23.6853V23.6831V23.6809V23.6787V23.6764V23.6742V23.672V23.6697V23.6675V23.6652V23.663V23.6607V23.6585V23.6562V23.6539V23.6516V23.6493V23.647V23.6447V23.6424V23.6401V23.6378V23.6355V23.6332V23.6308V23.6285V23.6262V23.6238V23.6215V23.6191V23.6167V23.6144V23.612V23.6096V23.6073V23.6049V23.6025V23.6001V23.5977V23.5953V23.5929V23.5904V23.588V23.5856V23.5832V23.5807V23.5783V23.5759V23.5734V23.571V23.5685V23.566V23.5636V23.5611V23.5586V23.5561V23.5537V23.5512V23.5487V23.5462V23.5437V23.5412V23.5386V23.5361V23.5336V23.5311V23.5286V23.526V23.5235V23.521V23.5184V23.5159V23.5133V23.5107V23.5082V23.5056V23.503V23.5005V23.4979V23.4953V23.4927V23.4901V23.4875V23.485V23.4823V23.4797V23.4771V23.4745V23.4719V23.4693V23.4667V23.464V23.4614V23.4588V23.4561V23.4535V23.4508V23.4482V23.4455V23.4429V23.4402V23.4376V23.4349V23.4322V23.4296V23.4269V23.4242V23.4215V23.4188V23.4161V23.4134V23.4108V23.4081V23.4053V23.4026V23.3999V23.3972V23.3945V23.3918V23.3891V23.3863V23.3836V23.3809V23.3782V23.3754V23.3727V23.3699V23.3672V23.3644V23.3617V23.3589V23.3562V23.3534V23.3507V23.3479V23.3451V23.3424V23.3396V23.3368V23.334V23.3312V23.3285V23.3257V23.3229V23.3201V23.3173V23.3145V23.3117V23.3089V23.3061V23.3033V23.3005V23.2977V23.2949V23.2921V23.2892V23.2864V23.2836V23.2808V23.278V23.2751V23.2723V23.2695V23.2666V23.2638V23.261V23.2581V23.2553V23.2524V23.2496V23.2467V23.2439V23.241V23.2382V23.2353V23.2325V23.2296V23.2267V23.2239V23.221V23.2182V23.2153V23.2124V23.2095V23.2067V23.2038V23.2009V23.198V23.1952V23.1923V23.1894V23.1865V23.1836V23.1808V23.1779V23.175V23.1721V23.1692V23.1663V23.1634V23.1605V23.1576V23.1547V23.1518V23.1489V23.146V23.1431V23.1402V23.1373V23.1344V23.1315V23.1286V23.1257V23.1228V23.1199V23.1169V23.114V23.1111V23.1082V23.1053V23.1024V23.0995V23.0965V23.0936V23.0907V23.0878V23.0849V23.0819V23.079V23.0761V23.0732V23.0703V23.0673V23.0644V23.0615V23.0586V23.0556V23.0527V23.0498V23.0469V23.0439V23.041V23.0381V23.0351V23.0322V23.0293V23.0264V23.0234V23.0205V23.0176V23.0146V23.0117V23.0088V23.0059V23.0029V23C21.5 22.5874 21.7013 22.2166 21.9589 21.9589C22.2166 21.7013 22.5874 21.5 23 21.5C23.35 21.5 23.7237 21.61 24.0172 21.8675C24.3213 22.1342 24.5 22.5254 24.5 23V23.0032V23.0064V23.0096V23.0128V23.016V23.0192V23.0224V23.0256V23.0288V23.032V23.0351V23.0383V23.0415V23.0447V23.0479V23.051V23.0542V23.0574V23.0605V23.0637V23.0668V23.07V23.0732V23.0763V23.0795V23.0826V23.0858V23.0889V23.092V23.0952V23.0983V23.1014V23.1046V23.1077V23.1108V23.1139V23.117V23.1202V23.1233V23.1264V23.1295V23.1326V23.1357V23.1388V23.1419V23.145V23.1481V23.1512V23.1542V23.1573V23.1604V23.1635V23.1665V23.1696V23.1727V23.1757V23.1788V23.1819V23.1849V23.188V23.191V23.194V23.1971V23.2001V23.2032V23.2062V23.2092V23.2122V23.2153V23.2183V23.2213V23.2243V23.2273V23.2303V23.2333V23.2363V23.2393V23.2423V23.2453V23.2483V23.2513V23.2542V23.2572V23.2602V23.2631V23.2661V23.2691V23.272V23.275V23.2779V23.2809V23.2838V23.2868V23.2897V23.2926V23.2955V23.2985V23.3014V23.3043V23.3072V23.3101V23.313V23.3159V23.3188V23.3217V23.3246V23.3275V23.3304V23.3333V23.3361V23.339V23.3419V23.3447V23.3476V23.3504V23.3533V23.3561V23.359V23.3618V23.3646V23.3675V23.3703V23.3731V23.3759V23.3788V23.3816V23.3844V23.3872V23.39V23.3928V23.3955V23.3983V23.4011V23.4039V23.4067V23.4094V23.4122V23.4149V23.4177V23.4204V23.4232V23.4259V23.4287V23.4314V23.4341V23.4368V23.4396V23.4423V23.445V23.4477V23.4504V23.4531V23.4558V23.4585V23.4611V23.4638V23.4665V23.4692V23.4718V23.4745V23.4771V23.4798V23.4824V23.4851V23.4877V23.4903V23.493V23.4956V23.4982V23.5008V23.5034V23.506V23.5086V23.5112V23.5138V23.5164V23.5189V23.5215V23.5241V23.5266V23.5292V23.5317V23.5343V23.5368V23.5393V23.5419V23.5444V23.5469V23.5494V23.5519V23.5545V23.5569V23.5594V23.5619V23.5644V23.5669V23.5694V23.5718V23.5743V23.5767V23.5792V23.5816V23.5841V23.5865V23.5889V23.5914V23.5938V23.5962V23.5986V23.601V23.6034V23.6058V23.6082V23.6106V23.6129V23.6153V23.6177V23.62V23.6224V23.6247V23.6271V23.6294V23.6317V23.6341V23.6364V23.6387V23.641V23.6433V23.6456V23.6479V23.6502V23.6524V23.6547V23.657V23.6592V23.6615V23.6637V23.666V23.6682V23.6704V23.6726V23.6749V23.6771V23.6793V23.6815V23.6837V23.6859V23.688V23.6902V23.6924V23.6945V23.6967V23.6989V23.701V23.7031V23.7053V23.7074V23.7095V23.7116V23.7137V23.7158V23.7179V23.72V23.7221V23.7242V23.7262V23.7283V23.7303V23.7324V23.7344V23.7365V23.7385V23.7405V23.7425V23.7445V23.7465V23.7485V23.7493L25.2157 24.2835L25.4167 24.4335V24.6842V26.9211H27.6111V20.3947H19.0278Z" fill="#221A22"/>
</svg>
