<svg width="47" height="75" viewBox="0 0 47 75" fill="none" xmlns="http://www.w3.org/2000/svg">
<path d="M23.6093 3.15772e-06C35.851 3.15772e-06 46.6937 7.73114 46.6937 22.4906C46.6937 25.583 45.0614 30.1046 44.2453 31.9788L23.6093 74.5L2.97299 31.9788C2.15688 30.1046 0.524651 25.583 0.524651 22.4906C0.524651 7.73113 11.3676 3.15772e-06 23.6093 3.15772e-06Z" fill="#F6F6F6" fill-opacity="0.9"/>
<path fill-rule="evenodd" clip-rule="evenodd" d="M32.9241 18.0176C33.1552 17.7554 33.3326 17.6194 33.4807 17.554C33.6118 17.4962 33.7495 17.4803 33.9423 17.5282L34.1832 16.5576C33.7994 16.4624 33.4325 16.4823 33.077 16.6391C32.8466 16.7408 32.6382 16.8926 32.4423 17.077C30.8909 16.369 29.5378 16.5433 28.5367 17.1085C28.01 17.4058 27.5905 17.806 27.2952 18.2236C27.0056 18.6332 26.8137 19.0916 26.7878 19.515C25.4109 19.5763 24.5153 19.8259 23.7992 20.2616C23.3887 20.5114 23.0575 20.8102 22.7421 21.1293C22.602 21.2709 22.4614 21.4205 22.3191 21.5718L22.3191 21.5719L22.2682 21.626C22.1068 21.7974 21.9402 21.9735 21.7572 22.1565C20.4709 23.4428 18.6646 23.8389 16.9662 23.9538C16.2825 24.0001 15.6333 24 15.0544 24H15.0544L15 24C14.3141 24 13.7706 24.3481 13.3635 24.802C12.9611 25.2507 12.6606 25.8343 12.4384 26.4055C11.9969 27.5403 11.8087 28.7755 11.8087 29.1946C11.8087 29.47 11.8487 29.8066 12.054 30.0792C12.2827 30.383 12.6296 30.5 13.0033 30.5H13.0059H13.0085H13.0111H13.0138H13.0165H13.0192H13.022H13.0248H13.0276H13.0305H13.0334H13.0364H13.0394H13.0424H13.0455H13.0486H13.0517H13.0549H13.0581H13.0613H13.0646H13.0679H13.0712H13.0746H13.078H13.0815H13.0849H13.0884H13.092H13.0956H13.0992H13.1028H13.1065H13.1102H13.114H13.1178H13.1216H13.1254H13.1293H13.1332H13.1372H13.1411H13.1451H13.1492H13.1533H13.1574H13.1615H13.1657H13.1699H13.1741H13.1784H13.1827H13.187H13.1913H13.1957H13.2001H13.2046H13.2091H13.2136H13.2181H13.2227H13.2273H13.2319H13.2366H13.2413H13.246H13.2507H13.2555H13.2603H13.2651H13.27H13.2749H13.2798H13.2848H13.2897H13.2947H13.2998H13.3048H13.3099H13.315H13.3202H13.3254H13.3306H13.3358H13.341H13.3463H13.3516H13.357H13.3623H13.3677H13.3731H13.3786H13.384H13.3895H13.395H13.4006H13.4062H13.4117H13.4174H13.423H13.4287H13.4344H13.4401H13.4459H13.4516H13.4574H13.4632H13.4691H13.4749H13.4808H13.4868H13.4927H13.4987H13.5046H13.5107H13.5167H13.5228H13.5288H13.5349H13.5411H13.5472H13.5534H13.5596H13.5658H13.572H13.5783H13.5846H13.5909H13.5972H13.6036H13.6099H13.6163H13.6227H13.6292H13.6356H13.6421H13.6486H13.6551H13.6617H13.6682H13.6748H13.6814H13.688H13.6946H13.7013H13.708H13.7147H13.7214H13.7281H13.7349H13.7417H13.7485H13.7553H13.7621H13.769H13.7758H13.7827H13.7896H13.7966H13.8035H13.8105H13.8174H13.8244H13.8314H13.8385H13.8455H13.8526H13.8597H13.8668H13.8739H13.881H13.8882H13.8953H13.9025H13.9097H13.9169H13.9242H13.9314H13.9387H13.9459H13.9532H13.9605H13.9679H13.9752H13.9826H13.9899H13.9973H14.0047H14.0121H14.0195H14.027H14.0344H14.0419H14.0494H14.0569H14.0644H14.0719H14.0795H14.087H14.0946H14.1021H14.1097H14.1173H14.125H14.1326H14.1402H14.1479H14.1555H14.1632H14.1709H14.1786H14.1863H14.194H14.2018H14.2095H14.2173H14.225H14.2328H14.2406H14.2484H14.2562H14.2641H14.2719H14.2797H14.2876H14.2954H14.3033H14.3112H14.3191H14.327H14.3349H14.3428H14.3508H14.3587H14.3666H14.3746H14.3826H14.3905H14.3985H14.4065H14.4145H14.4225H14.4305H14.4386H14.4466H14.4546H14.4627H14.4707H14.4788H14.4868H14.4949H14.503H14.5111H14.5192H14.5273H14.5354H14.5435H14.5516H14.5597H14.5679H14.576H14.5842H14.5923H14.6005H14.6086H14.6168H14.625H14.6331H14.6413H14.6495H14.6577H14.6659H14.6741H14.6823H14.6905H14.6987H14.7069H14.7151H14.7233H14.7315H14.7398H14.748H14.7562H14.7645H14.7727H14.781H14.7892H14.7974H14.8057H14.8139H14.8222H14.8305H14.8387H14.847H14.8552H14.8635H14.8718H14.88H14.8883H14.8965H14.9048H14.9131H14.9214H14.9296H14.9379H14.9462H14.9544H14.9627H14.971H14.9792H14.9875H14.9958H15.0041H15.0123H15.0206H15.0289H15.0371H15.0454H15.0536H15.0619H15.0702H15.0784H15.0867H15.0949H15.1032H15.1114H15.1197H15.1279H15.1362H15.1444H15.1527H15.1609H15.1691H15.1774H15.1856H15.1938H15.202H15.2102H15.2185H15.2267H15.2349H15.2431H15.2513H15.2594H15.2676H15.2758H15.284H15.2922H15.3003H15.3085H15.3167H15.3248H15.333H15.3411H15.3492H15.3574H15.3655H15.3736H15.3817H15.3898H15.3979H15.406H15.4141H15.4222H15.4303H15.4383H15.4464H15.4544H15.4625H15.4705H15.4785H15.4866H15.4946H15.5026H15.5106H15.5186H15.5265H15.5345H15.5425H15.5504H15.5584H15.5663H15.5742H15.5822H15.5901H15.598H15.6059H15.6137H15.6216H15.6295H15.6373H15.6452H15.653H15.6608H15.6686H15.6764H15.6842H15.692H15.6998H15.7075H15.7153H15.723H15.7307H15.7384H15.7461H15.7538H15.7615H15.7691H15.7768H15.7844H15.7921H15.7997H15.8073H15.8148H15.8224H15.83H15.8375H15.8451H15.8526H15.8601H15.8676H15.8751H15.8825H15.89H15.8974H15.9048H15.9123H15.9196H15.927H15.9344H15.9417H15.9491H15.9564H15.9637H15.971H15.9783H15.9855H15.9928H16H16.0072H16.0144H16.0216H16.0287H16.0359H16.0415C16.2795 31.9188 17.5135 33 19 33C20.4865 33 21.7205 31.9188 21.9585 30.5H25.0221C25.0059 30.5344 24.9907 30.5688 24.9765 30.603C24.8593 30.8865 24.7945 31.1968 24.8051 31.4922C24.8156 31.7823 24.9023 32.1094 25.1464 32.3535C25.4694 32.6765 26.0117 32.9803 26.5986 33.0581C27.2147 33.1398 27.9117 32.9704 28.4041 32.2944L27.5959 31.7056C27.3599 32.0295 27.0568 32.1101 26.73 32.0668C26.3741 32.0196 26.0306 31.8235 25.8536 31.6464C25.8477 31.6406 25.8094 31.5927 25.8045 31.4562C25.7998 31.3253 25.8293 31.1576 25.9006 30.9852C26.0503 30.6234 26.3136 30.3867 26.5806 30.3478L27.5235 30.2104L26.8747 29.5126C26.6297 29.2492 26.5249 28.9133 26.5048 28.5698C26.4846 28.2217 26.5547 27.9042 26.6168 27.7369L26.7783 27.3017L26.3563 27.1084C26.2513 27.0603 26.0603 26.9436 25.8882 26.7704C25.718 26.599 25.5969 26.4038 25.5608 26.1972C25.4665 25.5343 25.5705 25.0655 25.8117 24.716C26.0591 24.3575 26.5027 24.049 27.2358 23.8174C27.5623 23.7143 27.8107 23.7119 28.003 23.7541C28.1957 23.7964 28.3642 23.8904 28.5199 24.0282C28.8501 24.3203 29.0812 24.7655 29.3058 25.2115L29.482 25.5615L29.864 25.474C30.7895 25.262 30.9625 25.4447 30.9962 25.4885C31.0338 25.5374 31.0764 25.6348 31.1011 25.8335C31.1258 26.0313 31.1266 26.2662 31.1266 26.561H32.1266L32.1266 26.5429C32.1266 26.2703 32.1266 25.9756 32.0935 25.7097C32.0597 25.4387 31.9851 25.1336 31.7884 24.8783C31.4141 24.3923 30.7957 24.3011 30.0256 24.4238C29.8272 24.051 29.5586 23.612 29.1826 23.2793C29.1248 23.2281 29.0639 23.1789 29 23.1325V21.839L29.2381 21.3993C28.4224 20.9576 27.7342 20.4495 27.7859 19.5773C27.7968 19.3933 27.893 19.1104 28.1118 18.8009C28.3256 18.4984 28.636 18.2008 29.0283 17.9793C29.7927 17.5478 30.909 17.3823 32.3145 18.1286L32.6631 18.3137L32.9241 18.0176ZM28 21.8093V22.7416C27.6707 22.7051 27.3157 22.7435 26.9346 22.8638C26.1765 23.1033 25.56 23.4515 25.1379 23.9527H20.9847C21.511 23.6723 22.0117 23.3161 22.4643 22.8636C22.6588 22.6691 22.8343 22.4835 22.9964 22.3113L23.0472 22.2573L23.0473 22.2572C23.1909 22.1045 23.3226 21.9644 23.4532 21.8323C23.743 21.5392 24.0084 21.3049 24.319 21.1159C24.857 20.7885 25.5935 20.5592 26.9333 20.5099C27.15 21.0782 27.5714 21.4972 28 21.8093ZM24.6222 24.9527C24.5111 25.3791 24.5 25.8464 24.5719 26.346L24.5717 26.346L24.5737 26.3576C24.654 26.8361 24.9168 27.2115 25.1788 27.4752C25.305 27.6022 25.4381 27.7107 25.5654 27.7996C25.5171 28.0415 25.489 28.327 25.5065 28.6279C25.5226 28.9044 25.5782 29.2052 25.6995 29.5H21.9585C21.7205 28.0811 20.4865 27 19 27C17.5135 27 16.2795 28.0811 16.0415 29.5H16.0359H16.0287H16.0216H16.0144H16.0072H16H15.9928H15.9855H15.9783H15.971H15.9637H15.9564H15.9491H15.9417H15.9344H15.927H15.9196H15.9123H15.9048H15.8974H15.89H15.8825H15.8751H15.8676H15.8601H15.8526H15.8451H15.8375H15.83H15.8224H15.8148H15.8073H15.7997H15.7921H15.7844H15.7768H15.7691H15.7615H15.7538H15.7461H15.7384H15.7307H15.723H15.7153H15.7075H15.6998H15.692H15.6842H15.6764H15.6686H15.6608H15.653H15.6452H15.6373H15.6295H15.6216H15.6137H15.6059H15.598H15.5901H15.5822H15.5742H15.5663H15.5584H15.5504H15.5425H15.5345H15.5265H15.5186H15.5106H15.5026H15.4946H15.4866H15.4785H15.4705H15.4625H15.4544H15.4464H15.4383H15.4303H15.4222H15.4141H15.406H15.3979H15.3898H15.3817H15.3736H15.3655H15.3574H15.3492H15.3411H15.333H15.3248H15.3167H15.3085H15.3003H15.2922H15.284H15.2758H15.2676H15.2594H15.2513H15.2431H15.2349H15.2267H15.2185H15.2102H15.202H15.1938H15.1856H15.1774H15.1691H15.1609H15.1527H15.1444H15.1362H15.1279H15.1197H15.1114H15.1032H15.0949H15.0867H15.0784H15.0702H15.0619H15.0536H15.0454H15.0371H15.0289H15.0206H15.0123H15.0041H14.9958H14.9875H14.9792H14.971H14.9627H14.9544H14.9462H14.9379H14.9296H14.9214H14.9131H14.9048H14.8965H14.8883H14.88H14.8718H14.8635H14.8552H14.847H14.8387H14.8305H14.8222H14.8139H14.8057H14.7974H14.7892H14.781H14.7727H14.7645H14.7562H14.748H14.7398H14.7315H14.7233H14.7151H14.7069H14.6987H14.6905H14.6823H14.6741H14.6659H14.6577H14.6495H14.6413H14.6331H14.625H14.6168H14.6086H14.6005H14.5923H14.5842H14.576H14.5679H14.5597H14.5516H14.5435H14.5354H14.5273H14.5192H14.5111H14.503H14.4949H14.4868H14.4788H14.4707H14.4627H14.4546H14.4466H14.4386H14.4305H14.4225H14.4145H14.4065H14.3985H14.3905H14.3826H14.3746H14.3666H14.3587H14.3508H14.3428H14.3349H14.327H14.3191H14.3112H14.3033H14.2954H14.2876H14.2797H14.2719H14.2641H14.2562H14.2484H14.2406H14.2328H14.225H14.2173H14.2095H14.2018H14.194H14.1863H14.1786H14.1709H14.1632H14.1555H14.1479H14.1402H14.1326H14.125H14.1173H14.1097H14.1021H14.0946H14.087H14.0795H14.0719H14.0644H14.0569H14.0494H14.0419H14.0344H14.027H14.0195H14.0121H14.0047H13.9973H13.9899H13.9826H13.9752H13.9679H13.9605H13.9532H13.9459H13.9387H13.9314H13.9242H13.9169H13.9097H13.9025H13.8953H13.8882H13.881H13.8739H13.8668H13.8597H13.8526H13.8455H13.8385H13.8314H13.8244H13.8174H13.8105H13.8035H13.7966H13.7896H13.7827H13.7758H13.769H13.7621H13.7553H13.7485H13.7417H13.7349H13.7281H13.7214H13.7147H13.708H13.7013H13.6946H13.688H13.6814H13.6748H13.6682H13.6617H13.6551H13.6486H13.6421H13.6356H13.6292H13.6227H13.6163H13.6099H13.6036H13.5972H13.5909H13.5846H13.5783H13.572H13.5658H13.5596H13.5534H13.5472H13.5411H13.5349H13.5288H13.5228H13.5167H13.5107H13.5046H13.4987H13.4927H13.4868H13.4808H13.4749H13.4691H13.4632H13.4574H13.4516H13.4459H13.4401H13.4344H13.4287H13.423H13.4174H13.4117H13.4062H13.4006H13.395H13.3895H13.384H13.3786H13.3731H13.3677H13.3623H13.357H13.3516H13.3463H13.341H13.3358H13.3306H13.3254H13.3202H13.315H13.3099H13.3048H13.2998H13.2947H13.2897H13.2848H13.2798H13.2749H13.27H13.2651H13.2603H13.2555H13.2507H13.246H13.2413H13.2366H13.2319H13.2273H13.2227H13.2181H13.2136H13.2091H13.2046H13.2001H13.1957H13.1913H13.187H13.1827H13.1784H13.1741H13.1699H13.1657H13.1615H13.1574H13.1533H13.1492H13.1451H13.1411H13.1372H13.1332H13.1293H13.1254H13.1216H13.1178H13.114H13.1102H13.1065H13.1028H13.0992H13.0956H13.092H13.0884H13.0849H13.0815H13.078H13.0746H13.0712H13.0679H13.0646H13.0613H13.0581H13.0549H13.0517H13.0486H13.0455H13.0424H13.0394H13.0364H13.0334H13.0305H13.0276H13.0248H13.022H13.0192H13.0165H13.0138H13.0111H13.0085H13.0059H13.0033C12.9163 29.5 12.8742 29.4868 12.8595 29.4807C12.8559 29.4792 12.8537 29.478 12.8526 29.4773C12.8503 29.4742 12.8389 29.4566 12.8282 29.4106C12.8166 29.3612 12.8087 29.291 12.8087 29.1946C12.8087 28.9191 12.9662 27.807 13.3703 26.7681C13.5709 26.2525 13.8183 25.7926 14.108 25.4697C14.393 25.1518 14.6859 25 15 25L15.0628 25C15.6322 25.0001 16.3049 25.0001 17.0168 24.9527H24.6222ZM33.1543 22.9628C33.2582 22.7152 33.4652 22.3408 33.7317 22.0446C34.0113 21.734 34.2631 21.6091 34.4624 21.6222L34.5284 20.6244C33.8627 20.5804 33.3336 20.9921 32.9884 21.3757C32.8782 21.4982 32.7771 21.6282 32.686 21.7589C32.533 21.6188 32.3415 21.4895 32.106 21.3832C31.557 21.1355 31.0172 21.1883 30.5515 21.4316C30.1052 21.6648 29.7408 22.063 29.461 22.4995L30.3029 23.0391C30.5277 22.6884 30.776 22.4426 31.0146 22.3179C31.2336 22.2034 31.4507 22.1846 31.6947 22.2947C32.1142 22.4841 32.1815 22.7297 32.1916 22.7665L32.1916 22.7665C32.193 22.7716 32.1933 22.7727 32.1933 22.7693L33.1543 22.9628ZM30.2606 27.5611C29.8472 27.7866 29.3925 28.1179 29.0341 28.49C28.6982 28.8388 28.3492 29.3236 28.3492 29.853C28.3492 30.0859 28.4552 30.2799 28.5538 30.4135C28.658 30.5547 28.7938 30.6828 28.9383 30.7945C29.2281 31.0184 29.6079 31.2187 30.0066 31.3516C30.402 31.4833 30.8562 31.562 31.2864 31.5001C31.7314 31.4361 32.1689 31.2154 32.4349 30.7468C32.563 30.521 32.6662 30.3027 32.7482 30.0949C33.133 30.5681 33.7123 31 34.5 31V30C34.1071 30 33.7787 29.7867 33.5049 29.44C33.2285 29.0902 33.0551 28.6587 32.9851 28.3787L32.0148 28.6205C32.0408 28.7254 32.0738 29.357 31.5652 30.2532C31.4845 30.3954 31.3548 30.48 31.1441 30.5103C30.9185 30.5428 30.6283 30.5047 30.3227 30.4028C30.0203 30.3021 29.7424 30.1521 29.5498 30.0032C29.453 29.9284 29.3914 29.8645 29.3585 29.8199L29.3528 29.8118C29.3731 29.6845 29.4838 29.4646 29.7543 29.1838C30.0344 28.893 30.4052 28.6213 30.7395 28.4389L30.2606 27.5611ZM29.3386 29.7885L29.3397 29.791C29.3389 29.7893 29.3385 29.7885 29.3386 29.7885ZM19 32C20.1045 32 21 31.1045 21 30C21 28.8954 20.1045 28 19 28C17.8954 28 17 28.8954 17 30C17 31.1045 17.8954 32 19 32Z" fill="#221A22"/>
</svg>
