<svg width="47" height="75" viewBox="0 0 47 75" fill="none" xmlns="http://www.w3.org/2000/svg">
<path d="M23.6093 3.15772e-06C35.851 3.15772e-06 46.6937 7.73114 46.6937 22.4906C46.6937 25.583 45.0614 30.1046 44.2453 31.9788L23.6093 74.5L2.97299 31.9788C2.15688 30.1046 0.524651 25.583 0.524651 22.4906C0.524651 7.73113 11.3676 3.15772e-06 23.6093 3.15772e-06Z" fill="#F6F6F6" fill-opacity="0.9"/>
<path fill-rule="evenodd" clip-rule="evenodd" d="M16.3092 14.5626C16.2465 14.6253 16.1849 14.7264 16.1533 14.8531C16.1189 14.9903 15.9289 15.706 15.6809 16.6364H17.1191C16.8711 15.706 16.6811 14.9903 16.6467 14.8531C16.6151 14.7264 16.5535 14.6253 16.4908 14.5626C16.4415 14.5134 16.4085 14.5028 16.4 14.5005C16.3915 14.5028 16.3585 14.5134 16.3092 14.5626ZM15.414 17.6364L15.2063 18.4136H17.5937L17.386 17.6364H15.414ZM17.8611 19.4136L18.153 20.5045H14.647L14.9389 19.4136H17.8611ZM18.728 18.7845C18.8931 19.4018 19.0529 19.999 19.1883 20.5045H19.2227C20.0185 20.5045 20.6636 21.1497 20.6636 21.9455C20.6636 22.7412 20.0185 23.3864 19.2227 23.3864H13.3681C12.5723 23.3864 11.9272 22.7412 11.9272 21.9455C11.9272 21.1497 12.5723 20.5045 13.3681 20.5045H13.6117C13.7471 19.999 13.9069 19.4018 14.072 18.7845C14.2312 18.1895 14.3952 17.5758 14.5469 17.0074C14.8753 15.777 15.1439 14.7673 15.1831 14.6106C15.256 14.3191 15.4035 14.0542 15.6021 13.8555C15.7976 13.6601 16.0745 13.5 16.4 13.5C16.7255 13.5 17.0024 13.6601 17.1979 13.8555C17.3965 14.0542 17.544 14.3191 17.6169 14.6106C17.6561 14.7673 17.9247 15.777 18.2531 17.0074C18.4048 17.5758 18.5688 18.1895 18.728 18.7845ZM27.3829 13.8694C27.6659 13.5284 28.1905 13.5327 28.4677 13.8784L31.1293 17.1969C31.4968 17.6551 31.1706 18.3349 30.5832 18.3349H29.8031V22.5393C29.8031 22.9619 29.6248 23.3649 29.3121 23.6492L20.4212 31.7329C20.317 31.8277 20.2576 31.962 20.2576 32.1029V35.6C20.2576 36.0971 19.8547 36.5 19.3576 36.5H17.4C16.903 36.5 16.5 36.0971 16.5 35.6V30.7946C16.5 30.3688 16.681 29.9631 16.9978 29.6786L25.7735 21.7976C25.8791 21.7027 25.9394 21.5675 25.9394 21.4256V18.3349H25.1683C24.5755 18.3349 24.251 17.6441 24.6296 17.1879L27.3829 13.8694ZM27.9177 14.791L25.807 17.3349H26.2394C26.626 17.3349 26.9394 17.6483 26.9394 18.0349V21.4256C26.9394 21.8513 26.7585 22.2571 26.4417 22.5416L17.6659 30.4226C17.5603 30.5175 17.5 30.6527 17.5 30.7946V35.5H19.2576V32.1029C19.2576 31.6803 19.4359 31.2773 19.7485 30.993L28.6394 22.9093C28.7436 22.8145 28.8031 22.6802 28.8031 22.5393V18.0349C28.8031 17.6483 29.1165 17.3349 29.5031 17.3349H29.958L27.9177 14.791ZM29.5622 27.9667C29.5939 27.84 29.6555 27.739 29.7182 27.6763C29.7675 27.627 29.8005 27.6164 29.809 27.6142C29.8175 27.6164 29.8505 27.627 29.8998 27.6763C29.9625 27.739 30.0241 27.84 30.0557 27.9667C30.09 28.1039 30.2801 28.8197 30.5281 29.75H29.0898C29.3379 28.8197 29.5279 28.1039 29.5622 27.9667ZM28.6153 31.5273L28.823 30.75H30.795L31.0027 31.5273H28.6153ZM31.562 33.6182C31.4716 33.2804 31.3727 32.9107 31.2701 32.5273H28.3479C28.2453 32.9107 28.1464 33.2804 28.056 33.6182H31.562ZM32.5973 33.6182C32.4619 33.1126 32.3021 32.5154 32.137 31.8981C31.9778 31.3031 31.8138 30.6894 31.6621 30.121C31.3337 28.8906 31.0651 27.8809 31.0259 27.7242C30.953 27.4327 30.8055 27.1678 30.6069 26.9692C30.4114 26.7737 30.1345 26.6136 29.809 26.6136C29.4835 26.6136 29.2066 26.7737 29.0111 26.9692C28.8125 27.1678 28.665 27.4327 28.5921 27.7242C28.5529 27.8809 28.2843 28.8906 27.9559 30.121C27.8042 30.6894 27.6401 31.3031 27.481 31.8981C27.3159 32.5154 27.1561 33.1126 27.0207 33.6182H26.7771C25.9813 33.6182 25.3362 34.2633 25.3362 35.0591C25.3362 35.8549 25.9813 36.5 26.7771 36.5H32.6317C33.4275 36.5 34.0726 35.8549 34.0726 35.0591C34.0726 34.2633 33.4275 33.6182 32.6317 33.6182H32.5973ZM13.3681 21.5045C13.1246 21.5045 12.9272 21.7019 12.9272 21.9455C12.9272 22.189 13.1246 22.3864 13.3681 22.3864H19.2227C19.4662 22.3864 19.6636 22.189 19.6636 21.9455C19.6636 21.7019 19.4662 21.5045 19.2227 21.5045H13.9954H13.3681ZM26.3362 35.0591C26.3362 34.8156 26.5336 34.6182 26.7771 34.6182H27.4044H32.6317C32.8752 34.6182 33.0726 34.8156 33.0726 35.0591C33.0726 35.3026 32.8752 35.5 32.6317 35.5H26.7771C26.5336 35.5 26.3362 35.3026 26.3362 35.0591Z" fill="#221A22"/>
</svg>
