<svg width="47" height="75" viewBox="0 0 47 75" fill="none" xmlns="http://www.w3.org/2000/svg">
<path d="M23.6094 3.15772e-06C35.8511 3.15772e-06 46.6937 7.73114 46.6937 22.4906C46.6937 25.583 45.0615 30.1046 44.2454 31.9788L23.6094 74.5L2.97305 31.9788C2.15694 30.1046 0.524712 25.583 0.524712 22.4906C0.524712 7.73113 11.3677 3.15772e-06 23.6094 3.15772e-06Z" fill="#F6F6F6" fill-opacity="0.9"/>
<path fill-rule="evenodd" clip-rule="evenodd" d="M15.9285 11.2066C16.0225 11.0768 16.1731 11 16.3333 11H29.6667C29.8269 11 29.9775 11.0768 30.0715 11.2066L33.4049 15.8066C33.4667 15.8919 33.5 15.9946 33.5 16.1V16.5V32.2C33.5 32.9372 33.2172 33.6474 32.7087 34.1738C32.1996 34.7007 31.5054 35 30.7778 35H15.2222C14.4946 35 13.8004 34.7007 13.2913 34.1738C12.7828 33.6474 12.5 32.9372 12.5 32.2V16.5V16.1C12.5 15.9946 12.5333 15.8919 12.5951 15.8066L15.9285 11.2066ZM32.5 32.2V17H13.5V32.2C13.5 32.6828 13.6855 33.1426 14.0105 33.4789C14.3349 33.8147 14.7711 34 15.2222 34H30.7778C31.2289 34 31.6651 33.8147 31.9895 33.4789C32.3145 33.1426 32.5 32.6828 32.5 32.2ZM32.3101 16H13.6899L16.5885 12H29.4115L32.3101 16ZM18.5 20.5C18.5 20.2239 18.2761 20 18 20C17.7239 20 17.5 20.2239 17.5 20.5C17.5 21.9587 18.0795 23.3576 19.1109 24.3891C20.1424 25.4205 21.5413 26 23 26C24.4587 26 25.8576 25.4205 26.8891 24.3891C27.9205 23.3576 28.5 21.9587 28.5 20.5C28.5 20.2239 28.2761 20 28 20C27.7239 20 27.5 20.2239 27.5 20.5C27.5 21.6935 27.0259 22.8381 26.182 23.682C25.3381 24.5259 24.1935 25 23 25C21.8065 25 20.6619 24.5259 19.818 23.682C18.9741 22.8381 18.5 21.6935 18.5 20.5Z" fill="#221A22"/>
</svg>
