<svg width="47" height="75" viewBox="0 0 47 75" fill="none" xmlns="http://www.w3.org/2000/svg">
<path d="M23.6093 3.15772e-06C35.851 3.15772e-06 46.6937 7.73114 46.6937 22.4906C46.6937 25.583 45.0614 30.1046 44.2453 31.9788L23.6093 74.5L2.97299 31.9788C2.15688 30.1046 0.524651 25.583 0.524651 22.4906C0.524651 7.73113 11.3676 3.15772e-06 23.6093 3.15772e-06Z" fill="#F6F6F6" fill-opacity="0.9"/>
<path fill-rule="evenodd" clip-rule="evenodd" d="M17.4338 12.6352C14.067 13.0635 11.6121 16.4365 12.0577 20.257C12.4177 23.3444 14.5494 25.6734 17.1311 26.2273V23.832L14.8117 21.3801C14.6219 21.1795 14.6307 20.863 14.8313 20.6733C15.0319 20.4835 15.3484 20.4923 15.5381 20.6929L17.1311 22.3768V22.3241V17.0236C17.1311 16.7475 17.355 16.5236 17.6311 16.5236C17.9073 16.5236 18.1311 16.7475 18.1311 17.0236V21.0723L20.7104 18.3584C20.9006 18.1582 21.2171 18.1502 21.4173 18.3404C21.6174 18.5307 21.6255 18.8471 21.4352 19.0473L18.1311 22.5238V23.6329V26.3503C18.4273 26.3601 18.727 26.3465 19.0283 26.3082C19.4123 26.2593 19.7833 26.1728 20.1388 26.0523C19.8836 25.7118 19.7325 25.2889 19.7325 24.8307C19.7325 23.7047 20.6453 22.7919 21.7713 22.7919H23.7729C23.7741 22.7258 23.7884 22.6588 23.8173 22.5945C24.3394 21.432 24.5676 20.086 24.4044 18.6863C23.9589 14.8659 20.8006 12.2069 17.4338 12.6352ZM24.8164 22.7919C25.3491 21.5125 25.5712 20.0593 25.3964 18.5601C24.8973 14.2806 21.3179 11.133 17.3179 11.6419C13.3179 12.1507 10.5666 16.1037 11.0657 20.3832C11.4789 23.9266 14.004 26.6941 17.1311 27.2523V31.7133C16.9233 31.7312 16.688 31.7694 16.4477 31.8502C16.1045 31.4676 15.513 31.0532 14.6878 31.0532C14.013 31.0532 13.4212 31.2956 12.9977 31.726C12.5757 32.155 12.3483 32.7428 12.3483 33.3855C12.3483 33.8419 12.4323 34.2514 12.5443 34.5869H11.8628C11.5867 34.5869 11.3628 34.8108 11.3628 35.0869C11.3628 35.3631 11.5867 35.5869 11.8628 35.5869H13.3388H19.4707H20.6927L22.6939 35.5869L28.5415 35.5869L30.5704 35.5869L30.9329 35.5869H33.3243H34.5078C34.7839 35.5869 35.0078 35.3631 35.0078 35.0869C35.0078 34.8108 34.7839 34.5869 34.5078 34.5869H33.3243H31.9741C32.0265 34.4351 32.055 34.272 32.055 34.1024V31.999H32.4775C33.6035 31.999 34.5163 31.0862 34.5163 29.9602C34.5163 28.8342 33.6035 27.9214 32.4775 27.9214H31.0704V26.8696H31.493C32.619 26.8696 33.5318 25.9568 33.5318 24.8307C33.5318 23.7047 32.619 22.7919 31.493 22.7919H24.8164ZM30.0704 26.8696V27.9214H23.1938V26.8696H30.0704ZM22.1938 26.8696V27.9214H20.7867C19.6607 27.9214 18.7479 28.8342 18.7479 29.9602C18.7479 31.0862 19.6607 31.999 20.7867 31.999H21.2093V34.1024C21.2093 34.272 21.2378 34.4351 21.2902 34.5869H20.6927H20.2401L20.2402 34.5767C20.2402 33.6977 19.9568 32.9724 19.4679 32.4635C19.1001 32.0808 18.6338 31.8394 18.1311 31.744V27.3534C18.4646 27.3616 18.8029 27.3448 19.1441 27.3014C19.7555 27.2237 20.3397 27.0643 20.8886 26.8345C20.9468 26.8101 20.9981 26.7761 21.0414 26.735C21.268 26.8219 21.5141 26.8696 21.7713 26.8696H22.1938ZM28.5415 34.5869H29.1668C29.1143 34.4351 29.0859 34.272 29.0859 34.1024V31.999H24.1784V34.1024C24.1784 34.272 24.15 34.4351 24.0975 34.5869H28.5415ZM30.0859 34.1024C30.0859 34.37 30.3028 34.5869 30.5704 34.5869C30.8381 34.5869 31.055 34.37 31.055 34.1024V32.3387H30.0859V34.1024ZM22.6939 34.5869C22.4262 34.5869 22.2093 34.37 22.2093 34.1024V32.3387H23.1784V34.1024C23.1784 34.37 22.9615 34.5869 22.6939 34.5869ZM13.622 34.5869H19.2403L19.2402 34.5767C19.2402 33.9169 19.0313 33.4525 18.7468 33.1564C18.4608 32.8587 18.0669 32.6973 17.6311 32.6973C17.2685 32.6973 16.8744 32.7056 16.5312 32.9029L16.0845 33.1595L15.8413 32.7053C15.7337 32.5043 15.3287 32.0532 14.6878 32.0532C14.2589 32.0532 13.931 32.2033 13.7106 32.4274C13.4888 32.6528 13.3483 32.9811 13.3483 33.3855C13.3483 33.9087 13.4993 34.3379 13.622 34.5869ZM20.7325 24.8307C20.7325 24.257 21.1976 23.7919 21.7713 23.7919H31.493C32.0667 23.7919 32.5318 24.257 32.5318 24.8307C32.5318 25.4045 32.0667 25.8696 31.493 25.8696H21.7713C21.1976 25.8696 20.7325 25.4045 20.7325 24.8307ZM20.7867 28.9214C20.213 28.9214 19.7479 29.3865 19.7479 29.9602C19.7479 30.5339 20.213 30.999 20.7867 30.999H32.4775C33.0512 30.999 33.5163 30.5339 33.5163 29.9602C33.5163 29.3865 33.0512 28.9214 32.4775 28.9214H20.7867Z" fill="#221A22"/>
</svg>
