<svg width="47" height="75" viewBox="0 0 47 75" fill="none" xmlns="http://www.w3.org/2000/svg">
<path d="M23.6093 3.15772e-06C35.851 3.15772e-06 46.6937 7.73114 46.6937 22.4906C46.6937 25.583 45.0614 30.1046 44.2453 31.9788L23.6093 74.5L2.97299 31.9788C2.15688 30.1046 0.524651 25.583 0.524651 22.4906C0.524651 7.73113 11.3676 3.15772e-06 23.6093 3.15772e-06Z" fill="#F6F6F6" fill-opacity="0.9"/>
<path fill-rule="evenodd" clip-rule="evenodd" d="M30.231 20.1053C30.3035 20.0822 30.399 20.1285 30.4945 20.2557C30.4945 20.2557 30.4945 20.2557 34.8109 24.5198C35.0631 24.7743 35.0631 25.1598 34.8109 25.3487C34.8109 25.3487 34.8109 25.3487 30.4945 29.6784C30.399 29.8056 30.3035 29.8364 30.231 29.7979C30.1584 29.7593 30.1125 29.6475 30.1125 29.4856V20.3829C30.1125 20.2249 30.1584 20.1285 30.231 20.1053Z" fill="#221A22"/>
<path fill-rule="evenodd" clip-rule="evenodd" d="M22.8472 13H23.1528L23.4469 13.1234C23.4469 13.1234 23.4469 13.1234 27.8893 17.5802C28.0803 17.8347 28.0154 18.0275 27.6984 18.0275C27.6984 18.0275 27.6984 18.0275 25.8572 18.0275C25.5401 18.0275 25.288 18.2819 25.288 18.6019C25.288 18.6019 25.288 18.6019 25.288 21.9099C25.288 22.2299 25.0321 22.4843 24.6501 22.4843C24.6501 22.4843 24.6501 22.4843 21.4147 22.4843C21.0977 22.4843 20.8418 22.2299 20.8418 21.9099C20.8418 21.9099 20.8418 21.9099 20.8418 18.6019C20.8418 18.2819 20.5896 18.0275 20.2688 18.0275H18.3016C17.9845 18.0275 17.9196 17.8347 18.1106 17.5802C18.1106 17.5802 18.1106 17.5802 22.5569 13.1234L22.8472 13Z" fill="#221A22"/>
<path fill-rule="evenodd" clip-rule="evenodd" d="M15.8875 20.0092C15.9677 20.0477 16.0173 20.1595 16.0173 20.3215V29.613C16.0173 29.775 15.9677 29.8714 15.8875 29.9022C15.8111 29.933 15.7003 29.9022 15.5704 29.8058C15.5704 29.8058 15.5704 29.8058 11.1891 25.3489C10.937 25.16 10.937 24.7745 11.1891 24.52C11.1891 24.52 11.1891 24.52 15.5704 20.1287C15.7003 20.0015 15.8111 19.9706 15.8875 20.0092Z" fill="#221A22"/>
<path fill-rule="evenodd" clip-rule="evenodd" d="M21.4148 27.3228C21.4148 27.3228 21.4148 27.3228 24.6502 27.3228C25.0322 27.3228 25.2881 27.5772 25.2881 27.8972C25.2881 27.8972 25.2881 27.8972 25.2881 31.3979C25.2881 31.7796 25.5402 32.0341 25.8573 32.0341H27.5724C27.8894 32.0341 28.0155 32.223 27.7634 32.4158C27.7634 32.4158 27.7634 32.4158 23.4469 36.8071C23.3171 36.9343 23.1605 36.9999 23 36.9999C22.8434 36.9999 22.683 36.9343 22.5569 36.8071C22.5569 36.8071 22.5569 36.8071 18.2405 32.4158C17.9846 32.223 18.1106 32.0341 18.4277 32.0341C18.4277 32.0341 18.4277 32.0341 20.2688 32.0341C20.5897 32.0341 20.8418 31.7796 20.8418 31.3979C20.8418 31.3979 20.8418 31.3979 20.8418 27.8972C20.8418 27.5772 21.0977 27.3228 21.4148 27.3228Z" fill="#221A22"/>
</svg>
