<svg width="47" height="75" viewBox="0 0 47 75" fill="none" xmlns="http://www.w3.org/2000/svg">
<path d="M23.6093 3.15772e-06C35.851 3.15772e-06 46.6937 7.73114 46.6937 22.4906C46.6937 25.583 45.0614 30.1046 44.2453 31.9788L23.6093 74.5L2.97299 31.9788C2.15688 30.1046 0.524651 25.583 0.524651 22.4906C0.524651 7.73113 11.3676 3.15772e-06 23.6093 3.15772e-06Z" fill="#F6F6F6" fill-opacity="0.9"/>
<path fill-rule="evenodd" clip-rule="evenodd" d="M31.5565 14H28.5036C27.6752 14 27.0036 14.6716 27.0036 15.5V19.9426H26.9678H20.2129H20.1773V15.5C20.1773 14.6716 19.5058 14 18.6773 14H15.6244C14.8664 14 14.2397 14.5623 14.1387 15.2925C13.9684 15.2253 13.7829 15.1884 13.5887 15.1884H11.8868C11.0584 15.1884 10.3868 15.86 10.3868 16.6884V19.9426H10.351H9.50002C8.67159 19.9426 8.00002 20.6142 8.00002 21.4426V24.0081C8.00002 24.8365 8.67159 25.5081 9.50002 25.5081H10.351H10.3868V28.7617C10.3868 29.5901 11.0584 30.2617 11.8868 30.2617H13.5887C13.7829 30.2617 13.9684 30.2248 14.1387 30.1577C14.2397 30.8879 14.8664 31.4502 15.6244 31.4502H18.6773C19.5058 31.4502 20.1773 30.7786 20.1773 29.9502V25.5081H20.2129H26.9678H27.0036V29.9502C27.0036 30.7786 27.6752 31.4502 28.5036 31.4502H31.5565C32.3145 31.4502 32.9412 30.8879 33.0423 30.1577C33.2126 30.2248 33.3981 30.2617 33.5923 30.2617H35.2942C36.1226 30.2617 36.7942 29.5901 36.7942 28.7617V25.5081H36.83H37.681C38.5094 25.5081 39.181 24.8365 39.181 24.0081V21.4426C39.181 20.6142 38.5094 19.9426 37.681 19.9426H36.83H36.7942V16.6884C36.7942 15.86 36.1226 15.1884 35.2942 15.1884H33.5923C33.3981 15.1884 33.2126 15.2253 33.0423 15.2925C32.9412 14.5623 32.3145 14 31.5565 14ZM28.0036 15.5C28.0036 15.2239 28.2274 15 28.5036 15H31.5565C31.8326 15 32.0565 15.2239 32.0565 15.5V29.9502C32.0565 30.2264 31.8326 30.4502 31.5565 30.4502H28.5036C28.2274 30.4502 28.0036 30.2264 28.0036 29.9502V15.5ZM33.5923 16.1884C33.3161 16.1884 33.0923 16.4123 33.0923 16.6884V28.7617C33.0923 29.0378 33.3161 29.2617 33.5923 29.2617H35.2942C35.5703 29.2617 35.7942 29.0378 35.7942 28.7617V16.6884C35.7942 16.4123 35.5703 16.1884 35.2942 16.1884H33.5923ZM37.681 24.5081C37.7329 24.5081 37.7829 24.5001 37.83 24.4855C38.0334 24.4221 38.181 24.2323 38.181 24.0081V21.4426C38.181 21.2184 38.0334 21.0286 37.83 20.9652C37.7829 20.9505 37.7329 20.9426 37.681 20.9426H36.83V21.9426V23.5081V24.5081H37.681ZM21.2129 20.9426H20.2129V21.9426V23.5081V24.5081H21.2129H25.9678H26.9678V23.5081V21.9426V20.9426H25.9678H21.2129ZM15.1244 15.5C15.1244 15.2239 15.3483 15 15.6244 15H18.6773C18.9535 15 19.1773 15.2239 19.1773 15.5V29.9502C19.1773 30.2264 18.9535 30.4502 18.6773 30.4502H15.6244C15.3483 30.4502 15.1244 30.2264 15.1244 29.9502V15.5ZM11.8868 16.1884C11.6107 16.1884 11.3868 16.4123 11.3868 16.6884V28.7617C11.3868 29.0378 11.6107 29.2617 11.8868 29.2617H13.5887C13.8649 29.2617 14.0887 29.0378 14.0887 28.7617V16.6884C14.0887 16.4123 13.8649 16.1884 13.5887 16.1884H11.8868ZM9.35098 20.9652C9.39806 20.9505 9.44811 20.9426 9.50002 20.9426H10.351V21.9426V23.5081V24.5081H9.50002C9.44811 24.5081 9.39806 24.5001 9.35098 24.4855C9.14763 24.4221 9.00002 24.2323 9.00002 24.0081V21.4426C9.00002 21.2184 9.14763 21.0286 9.35098 20.9652Z" fill="#221A22"/>
</svg>
