<svg width="47" height="75" viewBox="0 0 47 75" fill="none" xmlns="http://www.w3.org/2000/svg">
<path d="M23.6093 3.15772e-06C35.851 3.15772e-06 46.6937 7.73114 46.6937 22.4906C46.6937 25.583 45.0614 30.1046 44.2453 31.9788L23.6093 74.5L2.97299 31.9788C2.15688 30.1046 0.524651 25.583 0.524651 22.4906C0.524651 7.73113 11.3676 3.15772e-06 23.6093 3.15772e-06Z" fill="#F6F6F6" fill-opacity="0.9"/>
<path fill-rule="evenodd" clip-rule="evenodd" d="M11.9997 14C11.7235 14 11.4997 14.2239 11.4997 14.5C11.4997 14.7761 11.7235 15 11.9997 15H13.9871L14.5303 16.8589L15.8919 21.518L17.2534 26.1772L18.1611 29.2833L18.2662 29.643H18.641H31.937C32.2131 29.643 32.437 29.4192 32.437 29.143C32.437 28.8669 32.2131 28.643 31.937 28.643H19.0158L18.4004 26.5369H21.8504H27.8107H32.3955H32.8001L32.8845 26.1412L34.8712 16.8229L35.0001 16.2186H34.3822H28.5748H20.9334H15.385L14.8418 14.3598L14.7367 14H14.3619H11.9997ZM21.2988 25.5369H18.1081L17.0388 21.8778H20.9387L21.2988 25.5369ZM20.8403 20.8778H16.7466L15.6773 17.2186H20.4802L20.8403 20.8778ZM21.8451 20.8778L21.4851 17.2186H28.0321L27.732 20.8778H21.8451ZM28.7354 20.8778L29.0355 17.2186H33.7644L32.9842 20.8778H28.7354ZM28.6534 21.8778H32.771L31.9908 25.5369H28.3533L28.6534 21.8778ZM27.65 21.8778L27.35 25.5369H22.3036L21.9435 21.8778H27.65ZM29.0993 31.5315L29.0993 31.5315C29.3518 31.2719 29.6906 31.1193 30.0604 31.1193C30.4302 31.1193 30.769 31.2719 31.0214 31.5315C31.2743 31.7916 31.4337 32.1531 31.4337 32.5598C31.4337 32.9665 31.2743 33.328 31.0214 33.588C30.7689 33.8477 30.4301 34.0003 30.0604 34.0003C29.6905 34.0003 29.3517 33.8477 29.0993 33.5881C28.8464 33.328 28.687 32.9664 28.687 32.5598C28.687 32.153 28.8464 31.7916 29.0993 31.5315ZM20.2056 31.5321L20.2061 31.5315C20.4586 31.2719 20.7974 31.1193 21.1672 31.1193C21.537 31.1193 21.8758 31.2719 22.1282 31.5315L22.1283 31.5315C22.3812 31.7916 22.5405 32.1531 22.5405 32.5598C22.5405 32.9665 22.3812 33.328 22.1283 33.588L22.1283 33.5881C21.8758 33.8477 21.537 34.0003 21.1672 34.0003C20.7974 34.0003 20.4586 33.8477 20.2062 33.5881L20.2061 33.5881C19.9532 33.328 19.7939 32.9664 19.7939 32.5598C19.7939 32.1526 19.9535 31.7908 20.2056 31.5321ZM23.5405 32.5598C23.5405 33.2336 23.2749 33.8433 22.8452 34.2852C22.4154 34.7271 21.8224 35.0003 21.1672 35.0003C20.512 35.0003 19.919 34.7271 19.4892 34.2852C19.0595 33.8433 18.7939 33.2335 18.7939 32.5598C18.7939 31.886 19.0595 31.2755 19.4892 30.8343C19.919 30.3924 20.512 30.1193 21.1672 30.1193C21.8224 30.1193 22.4154 30.3924 22.8452 30.8343C23.2749 31.2762 23.5405 31.886 23.5405 32.5598ZM28.3824 30.8343C28.8121 30.3924 29.4052 30.1193 30.0604 30.1193C30.7156 30.1193 31.3086 30.3924 31.7383 30.8343C32.168 31.2762 32.4337 31.886 32.4337 32.5598C32.4337 33.2336 32.1681 33.8433 31.7383 34.2852C31.3086 34.7271 30.7155 35.0003 30.0604 35.0003C29.4051 35.0003 28.8121 34.7271 28.3824 34.2852C27.9527 33.8433 27.687 33.2335 27.687 32.5598C27.687 31.886 27.9526 31.2762 28.3824 30.8343Z" fill="#221A22"/>
</svg>
